<svg xmlns="http://www.w3.org/2000/svg" width="72.587" height="50" viewBox="0 0 72.587 50">
  <g id="그룹_568" data-name="그룹 568" transform="translate(-134.529 243.355)">
    <path id="패스_3599" data-name="패스 3599" d="M195.786-242.169a1.5,1.5,0,0,0-1.425-1.186H151.012a1.546,1.546,0,0,0-1.187,1.068l-15.2,46.913a1.51,1.51,0,0,0,1.425,2.019h69.6a1.521,1.521,0,0,0,1.425-1.9ZM149.7-232.191v35.749h-11.52Zm2.97,35.868v-35.868l11.639,35.868Zm14.846,0-10.808-33.255H176.9a1.572,1.572,0,0,0,1.543-1.545,1.572,1.572,0,0,0-1.543-1.543H155.761l-2.493-7.6h39.787l10.69,43.944Z" transform="translate(0 0)" fill="#fff"/>
    <path id="패스_3600" data-name="패스 3600" d="M181.858-225.381H166.774a1.51,1.51,0,0,0-1.425,2.019l4.513,12.115a1.543,1.543,0,0,0,1.425.951h15.083a1.51,1.51,0,0,0,1.425-2.019l-4.513-12.115A1.54,1.54,0,0,0,181.858-225.381Zm-9.5,12.115-.594-1.543h7.126a1.572,1.572,0,0,0,1.543-1.545,1.571,1.571,0,0,0-1.543-1.544h-8.313l-1.663-4.513H180.79l3.444,9.027-11.877.118Z" transform="translate(5.615 3.284)" fill="#fff"/>
    <rect id="사각형_654" data-name="사각형 654" width="2.969" height="2.969" transform="translate(181.416 -232.667)" fill="#fff"/>
  </g>
</svg>
