<svg xmlns="http://www.w3.org/2000/svg" width="48.422" height="50" viewBox="0 0 48.422 50">
  <g id="그룹_564" data-name="그룹 564" transform="translate(651.13 -1380.706)">
    <g id="그룹_551" data-name="그룹 551" transform="translate(-651.13 1405.161)">
      <g id="그룹_548" data-name="그룹 548" transform="translate(0 0)">
        <path id="패스_3611" data-name="패스 3611" d="M-626.919,1588.531a23.867,23.867,0,0,1-17.138-7.2,24.658,24.658,0,0,1-7.073-17.406.939.939,0,0,1,.939-.939h46.544a.939.939,0,0,1,.939.939,24.658,24.658,0,0,1-7.073,17.406A23.867,23.867,0,0,1-626.919,1588.531Zm-22.314-23.667a22.541,22.541,0,0,0,22.314,21.788,22.54,22.54,0,0,0,22.314-21.788Z" transform="translate(651.13 -1562.986)"/>
      </g>
      <g id="그룹_549" data-name="그룹 549" transform="translate(5.522 0)">
        <path id="패스_3612" data-name="패스 3612" d="M-597.2,1581.43a.935.935,0,0,1-.349-.067l-1.972-.789a.928.928,0,0,1-.117-.057l-2.761-1.578a.938.938,0,0,1-.425-.518l-.789-2.367a.939.939,0,0,1-.048-.3v-3.435l-1.019-4.074-2.609-.652a.939.939,0,0,1-.536-.365l-1.972-2.761a.939.939,0,0,1,.218-1.31.939.939,0,0,1,1.31.218l1.771,2.48,2.82.7a.939.939,0,0,1,.683.683l1.183,4.733a.939.939,0,0,1,.028.228v3.4l.627,1.881,2.393,1.367.3.121-.054-.272a.932.932,0,0,1-.018-.184v-1.972a.939.939,0,0,1,.188-.563l1.133-1.51,1.077-2.154.373-2.61a.939.939,0,0,1,.762-.791l3.773-.686.978-3.261v-1.045a.939.939,0,0,1,.939-.939.939.939,0,0,1,.939.939v1.183a.937.937,0,0,1-.04.27l-1.183,3.944a.939.939,0,0,1-.732.654l-3.673.668-.3,2.091a.941.941,0,0,1-.09.287l-1.183,2.367a.942.942,0,0,1-.089.143l-1,1.327v1.566l.376,1.881a.94.94,0,0,1-.32.906A.94.94,0,0,1-597.2,1581.43Z" transform="translate(609.97 -1562.985)"/>
      </g>
      <g id="그룹_550" data-name="그룹 550" transform="translate(28.005 5.917)">
        <path id="패스_3613" data-name="패스 3613" d="M-430.408,1620.4a.935.935,0,0,1-.316-.055l-5.494-1.962-5.493-1.569a.939.939,0,0,1-.653-1.131l1.183-4.733a.939.939,0,0,1,.491-.612l6.311-3.156a.939.939,0,0,1,.7-.057l5.074,1.561,4.284.779a.939.939,0,0,1,.756,1.092.938.938,0,0,1-1.092.756l-4.339-.789a.948.948,0,0,1-.108-.026l-4.768-1.467-5.588,2.794-.858,3.433,4.649,1.328.058.019,5.522,1.972a.939.939,0,0,1,.569,1.2A.939.939,0,0,1-430.408,1620.4Z" transform="translate(442.392 -1607.086)"/>
      </g>
    </g>
    <g id="그룹_563" data-name="그룹 563" transform="translate(-647.974 1380.706)">
      <g id="그룹_555" data-name="그룹 555" transform="translate(13.017 0)">
        <g id="그룹_552" data-name="그룹 552" transform="translate(0 11.044)">
          <path id="패스_3614" data-name="패스 3614" d="M-515.451,1471.215a.939.939,0,0,1-.939-.939v-1.183c0-2.43-3.68-4.188-6.161-4.188s-6.161,1.759-6.161,4.188v1.183a.939.939,0,0,1-.939.939.939.939,0,0,1-.939-.939v-1.183a5.467,5.467,0,0,1,2.85-4.481,9.972,9.972,0,0,1,5.189-1.586,9.972,9.972,0,0,1,5.189,1.586,5.467,5.467,0,0,1,2.85,4.481v1.183A.939.939,0,0,1-515.451,1471.215Z" transform="translate(530.59 -1463.026)"/>
        </g>
        <g id="그룹_553" data-name="그룹 553" transform="translate(4.339 18.144)">
          <path id="패스_3615" data-name="패스 3615" d="M-491.789,1517.824h-5.522a.939.939,0,0,1-.939-.939.939.939,0,0,1,.939-.939h5.522a.939.939,0,0,1,.939.939A.939.939,0,0,1-491.789,1517.824Z" transform="translate(498.25 -1515.946)"/>
        </g>
        <g id="그룹_554" data-name="그룹 554" transform="translate(3.156)">
          <path id="패스_3616" data-name="패스 3616" d="M-502.186,1390.473a4.889,4.889,0,0,1-4.884-4.884,4.889,4.889,0,0,1,4.884-4.884,4.889,4.889,0,0,1,4.884,4.884A4.889,4.889,0,0,1-502.186,1390.473Zm0-7.889a3.009,3.009,0,0,0-3.005,3.005,3.009,3.009,0,0,0,3.005,3.005,3.009,3.009,0,0,0,3.005-3.005A3.009,3.009,0,0,0-502.186,1382.584Z" transform="translate(507.07 -1380.706)"/>
        </g>
      </g>
      <g id="그룹_562" data-name="그룹 562" transform="translate(0 3.944)">
        <g id="그룹_558" data-name="그룹 558">
          <g id="그룹_556" data-name="그룹 556" transform="translate(0 11.044)">
            <path id="패스_3617" data-name="패스 3617" d="M-612.471,1501.4h-14.2a.939.939,0,0,1-.939-.939v-1.972a5.467,5.467,0,0,1,2.85-4.481,9.971,9.971,0,0,1,5.189-1.586,9.971,9.971,0,0,1,5.189,1.586,5.467,5.467,0,0,1,2.85,4.481v1.972A.939.939,0,0,1-612.471,1501.4Zm-13.261-1.878h12.322v-1.033c0-2.43-3.68-4.189-6.161-4.189s-6.161,1.759-6.161,4.189Z" transform="translate(627.61 -1492.426)"/>
          </g>
          <g id="그룹_557" data-name="그룹 557" transform="translate(3.156)">
            <path id="패스_3618" data-name="패스 3618" d="M-599.206,1419.873a4.889,4.889,0,0,1-4.884-4.884,4.889,4.889,0,0,1,4.884-4.884,4.889,4.889,0,0,1,4.884,4.884A4.889,4.889,0,0,1-599.206,1419.873Zm0-7.889a3.009,3.009,0,0,0-3.005,3.005,3.009,3.009,0,0,0,3.005,3.005,3.009,3.009,0,0,0,3.005-3.005A3.009,3.009,0,0,0-599.206,1411.984Z" transform="translate(604.09 -1410.106)"/>
          </g>
        </g>
        <g id="그룹_561" data-name="그룹 561" transform="translate(26.033)">
          <g id="그룹_559" data-name="그룹 559" transform="translate(0 11.044)">
            <path id="패스_3619" data-name="패스 3619" d="M-418.431,1501.4h-14.2a.939.939,0,0,1-.939-.939v-1.972a5.467,5.467,0,0,1,2.85-4.481,9.972,9.972,0,0,1,5.189-1.586,9.972,9.972,0,0,1,5.189,1.586,5.467,5.467,0,0,1,2.85,4.481v1.972A.939.939,0,0,1-418.431,1501.4Zm-13.261-1.878h12.322v-1.033c0-2.43-3.68-4.189-6.161-4.189s-6.161,1.759-6.161,4.189Z" transform="translate(433.57 -1492.426)"/>
          </g>
          <g id="그룹_560" data-name="그룹 560" transform="translate(3.156)">
            <path id="패스_3620" data-name="패스 3620" d="M-405.166,1419.873a4.889,4.889,0,0,1-4.884-4.884,4.889,4.889,0,0,1,4.884-4.884,4.889,4.889,0,0,1,4.884,4.884A4.889,4.889,0,0,1-405.166,1419.873Zm0-7.889a3.009,3.009,0,0,0-3.005,3.005,3.009,3.009,0,0,0,3.005,3.005,3.009,3.009,0,0,0,3.005-3.005A3.009,3.009,0,0,0-405.166,1411.984Z" transform="translate(410.05 -1410.106)"/>
          </g>
        </g>
      </g>
    </g>
  </g>
</svg>
