<svg xmlns="http://www.w3.org/2000/svg" width="56.234" height="50" viewBox="0 0 56.234 50">
  <g id="그룹_542" data-name="그룹 542" transform="translate(-425.159 1150.285)">
    <path id="패스_3601" data-name="패스 3601" d="M487.259-1118.71c-1.7-.978-6.972-1.022-9.035-.966a28.883,28.883,0,0,0,2.371-22.241,1.724,1.724,0,0,0-.543-.876c-1.808-.6-6.768,1.464-8.549,2.357a24.116,24.116,0,0,0-11.78,11.9,27.162,27.162,0,0,0-16.193-13.7c-1.262-.406-2.563-.745-3.854-1.044-1.15.743-1.31,2.583-1.578,3.827a27.043,27.043,0,0,0,2.834,19.754c-1.72-.025-7.319-.024-8.5,1.1a1.179,1.179,0,0,0-.258.936,15.238,15.238,0,0,0,.7,3.335,30.99,30.99,0,0,0,8.739,14.892,20.156,20.156,0,0,0,15.029,5.329c.952-.055,1.883-.358,2.827-.408,1.53-.082,3.187.454,4.764.454,6.313,0,11.474-2.964,15.539-7.623a27.542,27.542,0,0,0,2.83-3.877c1.394-2.265,5.454-10.174,4.986-12.639A.764.764,0,0,0,487.259-1118.71Zm-26.712-7.043a12.331,12.331,0,0,1,1.946-4.673c3.543-5.683,9.59-9.141,15.976-10.638.155,0,.349-.056.474.05.389.33.523,1.306.612,1.792,1.29,7.091.511,13.891-3.674,19.919a28.541,28.541,0,0,0-4.332,1.173c-2.615.988-3.759,1.829-6.671,2.423,2.855-4.395,5.52-8.893,8.258-13.36.929-1.517,2.59-3.584,3.132-5.223a1.128,1.128,0,0,0-.007-.95.984.984,0,0,0-.764-.2c-.409.091-.592.5-.82.824l-7.894,12.8c-1.372,2.2-2.7,4.519-4.272,6.58q-.044-.162-.082-.325C461.907-1117.773,460.305-1123.827,460.547-1125.753Zm-20.229-15.638c.433.067.86.169,1.285.273a25.975,25.975,0,0,1,15.494,11.208,11.457,11.457,0,0,1,1.723,4.358c.245,2.057-1.405,7.907-1.975,10.187-2.1-2.283-3.629-5.373-5.228-8.03l-6.553-10.773a8.772,8.772,0,0,0-.563-.951,1.381,1.381,0,0,0-.913-.552.712.712,0,0,0-.673.282,1.38,1.38,0,0,0,.13,1.037c1.172,2.373,2.837,4.691,4.223,6.96,2.369,3.878,4.645,7.806,7.064,11.654a59.237,59.237,0,0,0-11.192-3.686,22.391,22.391,0,0,1-1.428-2.305C438.566-1127.68,438.361-1135.026,440.318-1141.392Zm18.4,29.1c.1,1.794.039,3.615.025,5.411a23.35,23.35,0,0,1-1.638-2.955,25.759,25.759,0,0,0-3.408-4.462A23.47,23.47,0,0,1,458.713-1112.3Zm-19.372-1.176c.083.987,1.007,1.572,1.706,2.137q8.275,7.817,16.785,15.377-.389.061-.78.1t-.784.069q-.392.026-.786.034t-.787,0q-.393-.009-.786-.035t-.783-.07q-.391-.044-.78-.1t-.774-.139q-.386-.078-.767-.173t-.759-.207q-.377-.112-.749-.241t-.737-.274q-.366-.145-.725-.306t-.71-.338q-.352-.177-.695-.369t-.678-.4c-6.81-4.284-10.187-11.477-11.944-19.055a32.966,32.966,0,0,1,4.642-.552c5.168-.127,9.916.928,13.775,4.579a23.1,23.1,0,0,1,6.808,16.254c-4.527-3.725-8.83-7.846-13.122-11.844-1.493-1.391-2.936-2.874-4.483-4.2a3.417,3.417,0,0,0-1.289-.771.737.737,0,0,0-.739.134A1.1,1.1,0,0,0,439.341-1113.472Zm20.2-.117a8.815,8.815,0,0,1-1.351-.726c.565-1.963.955-3.983,1.5-5.955a46.1,46.1,0,0,1,1.385,5.865Zm1,7.4-.1-.081c-.085-1.956-.026-3.933-.024-5.891a22.754,22.754,0,0,1,4.438-1.822l.24.037c-.207.784-1.511,1.908-2.007,2.661a20.273,20.273,0,0,0-2.492,5.007Zm15.063,6.3c-4.266,3.532-8.758,4.558-14.2,4.05,4.947-4.25,9.619-8.85,14.406-13.28,1.123-1.03,2.872-2.292,3.567-3.635a1.011,1.011,0,0,0,.057-.948,1.1,1.1,0,0,0-.474-.268.751.751,0,0,0-.672.158c-1.251,1.028-2.4,2.371-3.591,3.495q-4.4,4.17-8.873,8.265c-1.7,1.553-3.377,3.177-5.2,4.586.245-5.022,1.573-10.254,4.812-14.206s7.534-5.706,12.515-6.208a25.2,25.2,0,0,1,7.936.413C484.236-1110.964,480.841-1104.232,475.6-1099.891Z" transform="translate(-6.62 -6.609)"/>
    <path id="패스_3602" data-name="패스 3602" d="M457.614-1100.285h0a15.182,15.182,0,0,1-2.3-.238,12.086,12.086,0,0,0-2.444-.217,10.353,10.353,0,0,0-1.367.2,11.363,11.363,0,0,1-1.458.21,20.789,20.789,0,0,1-8.219-1.138,21.141,21.141,0,0,1-7.095-4.292,31.413,31.413,0,0,1-8.854-15.08c-.046-.172-.1-.349-.146-.527a12.568,12.568,0,0,1-.569-2.9,1.551,1.551,0,0,1,.379-1.229c1.111-1.056,5.283-1.226,8.092-1.215a25.494,25.494,0,0,1-3.012-9.151,30.057,30.057,0,0,1,.476-10.288c.041-.188.079-.391.119-.607.23-1.224.516-2.747,1.628-3.466a.39.39,0,0,1,.3-.052c1.472.34,2.743.684,3.886,1.052a27.546,27.546,0,0,1,16.043,13.183,24.645,24.645,0,0,1,11.636-11.355c1.654-.831,6.831-3.05,8.847-2.379a.391.391,0,0,1,.136.079,2.112,2.112,0,0,1,.657,1.053,29.217,29.217,0,0,1-2.094,21.954c1.873-.02,6.836.025,8.58,1.03h0a1.154,1.154,0,0,1,.517.771c.515,2.711-3.825,10.947-5.037,12.916a28.054,28.054,0,0,1-2.869,3.929,23.848,23.848,0,0,1-7.043,5.65A19.116,19.116,0,0,1,457.614-1100.285Zm-4.442-1.243a14.975,14.975,0,0,1,2.26.234,14.638,14.638,0,0,0,2.18.228h0c5.778,0,10.906-2.52,15.243-7.489a27.28,27.28,0,0,0,2.79-3.822c1.666-2.707,5.352-10.175,4.936-12.364a.391.391,0,0,0-.139-.24h0c-1.513-.871-6.437-.979-8.83-.914a.39.39,0,0,1-.343-.185.39.39,0,0,1-.012-.389,28.515,28.515,0,0,0,2.342-21.942,1.352,1.352,0,0,0-.369-.643c-1.6-.43-6.086,1.31-8.174,2.359-5.531,2.777-9.541,6.823-11.6,11.7a.39.39,0,0,1-.345.239.391.391,0,0,1-.362-.212,26.8,26.8,0,0,0-15.966-13.51c-1.077-.347-2.273-.673-3.651-1a4.829,4.829,0,0,0-1.156,2.862c-.041.22-.08.429-.123.627a26.482,26.482,0,0,0,2.787,19.472.39.39,0,0,1,0,.4.384.384,0,0,1-.344.195c-4.3-.063-7.527.327-8.228.994-.126.119-.145.334-.137.642a11.816,11.816,0,0,0,.54,2.71c.051.181.1.36.147.534a30.626,30.626,0,0,0,8.624,14.7A19.851,19.851,0,0,0,450-1101.111a10.632,10.632,0,0,0,1.358-.2,11.1,11.1,0,0,1,1.471-.21Q453-1101.528,453.172-1101.528Zm4.112-.411c-.818,0-1.663-.041-2.54-.123a.39.39,0,0,1-.336-.27.39.39,0,0,1,.118-.414c3.386-2.91,6.7-6.036,9.9-9.06,1.468-1.385,2.987-2.818,4.491-4.211.271-.248.569-.5.886-.773a11.02,11.02,0,0,0,2.6-2.754.6.6,0,0,0,.07-.533.515.515,0,0,0-.211-.12.366.366,0,0,0-.355.075,28.046,28.046,0,0,0-2.2,2.1c-.448.46-.91.936-1.374,1.374-2.921,2.767-5.908,5.549-8.877,8.269-.347.317-.7.643-1.04.958-1.338,1.237-2.721,2.517-4.182,3.648a.39.39,0,0,1-.419.037.39.39,0,0,1-.209-.365c.2-4.1,1.212-9.934,4.9-14.434,3.04-3.71,7.217-5.786,12.768-6.348a25.865,25.865,0,0,1,8.059.417.39.39,0,0,1,.255.174.39.39,0,0,1,.049.305,40.186,40.186,0,0,1-3.836,9.7,28.607,28.607,0,0,1-6.583,8.087A17.718,17.718,0,0,1,457.285-1101.938Zm-1.541-.829a17.366,17.366,0,0,0,12.985-4.034l.249.3-.249-.3c6.139-5.083,8.912-12.652,10.056-16.972a24.055,24.055,0,0,0-7.395-.333l-.019,0c-5.34.539-9.348,2.523-12.252,6.067-3.3,4.028-4.378,9.2-4.67,13.106,1.188-.971,2.334-2.03,3.447-3.061.342-.316.695-.643,1.043-.961,2.965-2.716,5.949-5.5,8.868-8.26.452-.426.909-.9,1.35-1.35a28.558,28.558,0,0,1,2.261-2.162,1.138,1.138,0,0,1,.989-.24,1.305,1.305,0,0,1,.59.3l.052.041a.39.39,0,0,1,.129.177,1.4,1.4,0,0,1-.077,1.26,11.512,11.512,0,0,1-2.786,2.989c-.311.266-.6.517-.864.754-1.5,1.389-3.018,2.82-4.485,4.2C461.978-1108.419,458.9-1105.511,455.744-1102.767Zm-7.269.8c-.136,0-.272,0-.407,0-.267-.006-.537-.018-.8-.036s-.535-.042-.8-.072-.533-.066-.8-.107-.529-.089-.791-.142-.526-.113-.784-.177-.52-.136-.776-.212-.513-.159-.765-.246-.506-.182-.754-.28-.5-.2-.741-.313-.487-.225-.726-.345-.478-.247-.71-.377-.466-.268-.693-.409a24.183,24.183,0,0,1-8-8.427,38.579,38.579,0,0,1-4.121-10.872.39.39,0,0,1,.052-.3.391.391,0,0,1,.252-.171,33.346,33.346,0,0,1,4.7-.558h.012a23.546,23.546,0,0,1,7.5.89,16.161,16.161,0,0,1,6.552,3.8,21.381,21.381,0,0,1,5.106,7.583,25.741,25.741,0,0,1,1.824,8.945.39.39,0,0,1-.219.36.39.39,0,0,1-.419-.049c-3.832-3.154-7.545-6.628-11.136-9.987q-1-.939-2-1.872c-.53-.494-1.062-1.008-1.577-1.5-.936-.9-1.9-1.836-2.894-2.686a3.241,3.241,0,0,0-1.125-.687c-.168-.04-.227-.046-.309,0a.38.38,0,0,0-.011.114h0c.058.691.679,1.175,1.279,1.643.1.075.192.15.283.224l.023.02c5.488,5.184,11.133,10.355,16.776,15.369a.391.391,0,0,1,.115.4.391.391,0,0,1-.314.276c-.264.041-.532.077-.8.106s-.535.053-.8.071-.536.029-.8.035C448.74-1101.965,448.607-1101.964,448.474-1101.964Zm-20.812-21.8c2.1,8.773,5.927,14.8,11.679,18.418.215.133.438.265.661.39s.451.246.679.361.462.226.695.331.471.205.709.3.48.184.721.268.488.163.733.235.494.141.742.2.5.119.75.17.506.1.757.136.509.074.763.1.512.051.766.068.513.029.768.035.514.006.769,0,.514-.017.769-.034c.23-.015.462-.035.692-.06-5.433-4.838-10.861-9.817-16.145-14.808-.084-.068-.172-.136-.261-.206a3.308,3.308,0,0,1-1.577-2.193,1.367,1.367,0,0,1,.066-.5l.007-.026a.391.391,0,0,1,.152-.217,1.115,1.115,0,0,1,1.054-.194,3.781,3.781,0,0,1,1.453.854c1.008.865,1.984,1.807,2.928,2.717.512.494,1.042,1.005,1.567,1.495q1,.933,2,1.873c3.371,3.154,6.849,6.408,10.425,9.4a22.578,22.578,0,0,0-6.65-15.11c-3.376-3.194-7.664-4.615-13.491-4.473A33.573,33.573,0,0,0,427.662-1123.764Zm26.252,11.357a.391.391,0,0,1-.248-.089l-.1-.081a.391.391,0,0,1-.142-.285c-.061-1.413-.048-2.854-.035-4.247.005-.545.01-1.109.011-1.661a.39.39,0,0,1,.2-.342,22.981,22.981,0,0,1,4.512-1.853.388.388,0,0,1,.173-.012l.24.037a.39.39,0,0,1,.267.172.391.391,0,0,1,.051.313,5.549,5.549,0,0,1-1.3,1.855,9.2,9.2,0,0,0-.764.921,19.762,19.762,0,0,0-2.446,4.912.389.389,0,0,1-.04.087l-.056.089a.391.391,0,0,1-.268.178A.389.389,0,0,1,453.914-1112.407Zm.267-6.129c0,.48-.006.964-.01,1.435-.008.85-.016,1.717-.007,2.583a22.584,22.584,0,0,1,1.972-3.59,9.654,9.654,0,0,1,.834-1.012c.266-.3.551-.615.77-.908A21.639,21.639,0,0,0,454.181-1118.536Zm-2.064,5.433a.39.39,0,0,1-.292-.132,9.808,9.808,0,0,1-1.149-1.981c-.191-.39-.372-.759-.534-1.036a25.046,25.046,0,0,0-3.358-4.394.391.391,0,0,1-.056-.451.39.39,0,0,1,.408-.2,16.642,16.642,0,0,1,4.039,1.529c.379.181.737.353,1.078.506a.39.39,0,0,1,.23.334c.079,1.408.059,2.845.04,4.235-.006.4-.011.8-.014,1.2a.39.39,0,0,1-.253.362A.389.389,0,0,1,452.118-1113.1Zm-3.883-7.092a23.582,23.582,0,0,1,2.582,3.549c.177.3.363.683.561,1.087.118.24.241.492.366.733.017-1.26.033-2.556-.028-3.822-.282-.13-.573-.269-.877-.415A26.437,26.437,0,0,0,448.234-1120.2Zm4.685.387a.389.389,0,0,1-.128-.022,5.8,5.8,0,0,1-1.073-.552c-.119-.072-.232-.14-.343-.2a.39.39,0,0,1-.182-.447c.3-1.032.551-2.1.8-3.137.219-.925.446-1.881.7-2.815a.39.39,0,0,1,.35-.285.39.39,0,0,1,.385.237,25.74,25.74,0,0,1,1.071,4.3c.119.608.231,1.182.335,1.635a.39.39,0,0,1-.2.432l-1.535.816A.391.391,0,0,1,452.919-1119.808Zm-.893-1.3.1.058a6.57,6.57,0,0,0,.771.422l1.115-.593c-.087-.406-.179-.876-.275-1.367-.181-.927-.391-2-.625-2.9-.124.5-.243,1-.36,1.5C452.524-1123.041,452.293-1122.064,452.026-1121.107Zm3.866-.35a.393.393,0,0,1-.075-.007.39.39,0,0,1-.3-.281c-.03-.111-.059-.225-.085-.338-.073-.308-.167-.692-.276-1.136-.685-2.792-1.831-7.466-1.615-9.193h0a12.8,12.8,0,0,1,2-4.831c3.3-5.294,9.061-9.134,16.218-10.812a.4.4,0,0,1,.08-.01c.022,0,.053,0,.085-.006a.832.832,0,0,1,.65.149,3.282,3.282,0,0,1,.716,1.867c.009.054.018.105.027.152a30.606,30.606,0,0,1,.217,10.492,23.769,23.769,0,0,1-3.955,9.719.39.39,0,0,1-.242.16,28.423,28.423,0,0,0-4.273,1.156c-.849.321-1.533.622-2.195.914a19.773,19.773,0,0,1-4.536,1.527.391.391,0,0,1-.4-.163.391.391,0,0,1,0-.432c2.1-3.228,4.128-6.572,6.092-9.8.706-1.163,1.437-2.366,2.161-3.547.285-.465.631-.971,1-1.508a17.12,17.12,0,0,0,2.1-3.634.824.824,0,0,0,.054-.558.487.487,0,0,0-.369-.089c-.163.036-.278.2-.448.462-.042.064-.084.13-.13.2l-7.887,12.79c-.305.49-.613.994-.911,1.481a60.146,60.146,0,0,1-3.382,5.131A.39.39,0,0,1,455.892-1121.457Zm16.01-25.829c-6.939,1.635-12.513,5.347-15.7,10.456a12.089,12.089,0,0,0-1.89,4.516h0c-.2,1.583.97,6.349,1.6,8.909.058.237.112.457.161.658,1.015-1.408,1.944-2.927,2.845-4.4.3-.489.608-.994.914-1.485l7.893-12.8.014-.021c.039-.055.078-.115.119-.178a1.547,1.547,0,0,1,.935-.8,1.35,1.35,0,0,1,1.054.249.391.391,0,0,1,.146.162,1.511,1.511,0,0,1,.025,1.242,17.577,17.577,0,0,1-2.193,3.829c-.361.528-.7,1.027-.976,1.475-.723,1.18-1.453,2.382-2.159,3.544-1.8,2.97-3.663,6.032-5.582,9.017a20.421,20.421,0,0,0,3.45-1.264c.671-.3,1.365-.6,2.234-.93a28.423,28.423,0,0,1,4.237-1.158c3.759-5.487,4.911-11.866,3.522-19.5-.009-.048-.018-.1-.028-.157a3.707,3.707,0,0,0-.425-1.38c-.029,0-.071,0-.1.007Zm-17.975,14.923h0Zm-3.7,10.778a.39.39,0,0,1-.287-.126,34.037,34.037,0,0,1-4.151-6.163c-.385-.672-.749-1.307-1.125-1.93l-6.552-10.772-.008-.013-.106-.193a6.281,6.281,0,0,0-.43-.715.991.991,0,0,0-.639-.4c-.127-.013-.152-.015-.272.094a.961.961,0,0,0,.12.665,49.233,49.233,0,0,0,2.814,4.735c.465.721.947,1.467,1.391,2.195.925,1.515,1.851,3.062,2.747,4.558,1.4,2.334,2.842,4.748,4.315,7.091a.39.39,0,0,1-.03.457.39.39,0,0,1-.444.114l-1.005-.4a53.2,53.2,0,0,0-10.112-3.266.39.39,0,0,1-.252-.161,22.664,22.664,0,0,1-1.453-2.345,23.906,23.906,0,0,1-2.654-9.835,29.007,29.007,0,0,1,1.233-10.124.39.39,0,0,1,.433-.271c.448.069.879.172,1.318.28a26.311,26.311,0,0,1,8.96,4.195,24.751,24.751,0,0,1,6.776,7.191,11.953,11.953,0,0,1,1.776,4.513c.219,1.834-.971,6.413-1.681,9.149-.119.458-.221.853-.3,1.179a.39.39,0,0,1-.282.283A.394.394,0,0,1,450.224-1121.585Zm-11.444-19.39,6.549,10.767c.381.632.764,1.3,1.134,1.946a37.9,37.9,0,0,0,3.566,5.473l.121-.466c.651-2.507,1.863-7.172,1.662-8.86a11.232,11.232,0,0,0-1.67-4.2,25.733,25.733,0,0,0-15.253-11.03c-.309-.076-.613-.149-.918-.208-1.926,6.554-1.385,13.645,1.464,19.036a21.388,21.388,0,0,0,1.312,2.133,54.05,54.05,0,0,1,10,3.239c-1.259-2.028-2.494-4.091-3.693-6.1-.895-1.495-1.82-3.04-2.743-4.552-.44-.72-.918-1.461-1.381-2.179a49.846,49.846,0,0,1-2.858-4.813,1.755,1.755,0,0,1-.162-1.291.39.39,0,0,1,.116-.2,1.091,1.091,0,0,1,.979-.385,1.765,1.765,0,0,1,1.186.708,6.873,6.873,0,0,1,.488.805Z" transform="translate(0)"/>
  </g>
</svg>
