<svg xmlns="http://www.w3.org/2000/svg" width="50" height="50" viewBox="0 0 50 50">
  <g id="그룹_535" data-name="그룹 535" transform="translate(-799.256 157.7)">
    <g id="그룹_516" data-name="그룹 516" transform="translate(799.256 -143.326)">
      <g id="그룹_503" data-name="그룹 503" transform="translate(0 0.63)">
        <g id="그룹_502" data-name="그룹 502">
          <path id="패스_3559" data-name="패스 3559" d="M802.928-52.691a2.647,2.647,0,0,1-1.879-.793A2.627,2.627,0,0,1,800.336-56a129.125,129.125,0,0,1,5.992-18.268c2.515-5.964,5.161-10.434,7.653-12.926a.214.214,0,0,1,.153-.063.215.215,0,0,1,.153.063l.764.764a.216.216,0,0,1,.063.153.216.216,0,0,1-.063.153c-2.355,2.355-4.889,6.658-7.329,12.443a127.615,127.615,0,0,0-5.919,18.05,1.128,1.128,0,0,0,.316,1.076,1.15,1.15,0,0,0,.813.349,1.081,1.081,0,0,0,.263-.033,127.617,127.617,0,0,0,18.049-5.919c5.786-2.44,10.089-4.974,12.444-7.329a.215.215,0,0,1,.153-.063.215.215,0,0,1,.153.063l.764.764a.216.216,0,0,1,.063.153.215.215,0,0,1-.063.153c-2.492,2.492-6.962,5.139-12.926,7.653a129.126,129.126,0,0,1-18.268,5.992A2.61,2.61,0,0,1,802.928-52.691Z" transform="translate(-800.041 87.471)"/>
          <path id="패스_3560" data-name="패스 3560" d="M813.349-87.823l.764.764c-2.375,2.375-4.925,6.7-7.375,12.513a127.853,127.853,0,0,0-5.929,18.081,1.342,1.342,0,0,0,.373,1.281,1.367,1.367,0,0,0,.966.412,1.3,1.3,0,0,0,.316-.039,127.851,127.851,0,0,0,18.081-5.929c5.811-2.45,10.138-5,12.512-7.375l.764.764c-2.473,2.472-6.918,5.1-12.857,7.607a128.928,128.928,0,0,1-18.237,5.981,2.384,2.384,0,0,1-.583.073,2.437,2.437,0,0,1-1.726-.729,2.413,2.413,0,0,1-.657-2.309,128.941,128.941,0,0,1,5.981-18.236c2.5-5.938,5.134-10.384,7.607-12.857m0-.432a.431.431,0,0,0-.305.127c-2.512,2.511-5.174,7-7.7,12.994a129.372,129.372,0,0,0-6,18.3,2.841,2.841,0,0,0,.77,2.72,2.861,2.861,0,0,0,2.031.856,2.825,2.825,0,0,0,.689-.086,129.365,129.365,0,0,0,18.3-6c5.989-2.525,10.483-5.188,12.994-7.7a.432.432,0,0,0,.127-.306.432.432,0,0,0-.127-.306l-.764-.764a.431.431,0,0,0-.306-.127.43.43,0,0,0-.305.127c-2.336,2.336-6.615,4.854-12.375,7.282a127.382,127.382,0,0,1-18.018,5.908.865.865,0,0,1-.21.026.934.934,0,0,1-.66-.286.913.913,0,0,1-.259-.87,127.405,127.405,0,0,1,5.908-18.018c2.429-5.76,4.947-10.039,7.283-12.375a.432.432,0,0,0,0-.611l-.764-.764a.431.431,0,0,0-.306-.127Z" transform="translate(-799.256 88.255)"/>
        </g>
      </g>
      <g id="그룹_505" data-name="그룹 505" transform="translate(13.033 0)">
        <g id="그룹_504" data-name="그룹 504">
          <path id="패스_3561" data-name="패스 3561" d="M880.132-68.006a9.252,9.252,0,0,1-4.042-1.27,35.215,35.215,0,0,1-8.053-6.2,35.206,35.206,0,0,1-6.2-8.053c-1.854-3.537-1.336-5.187-.575-5.948a2.579,2.579,0,0,1,1.9-.694,11.138,11.138,0,0,1,5.352,2.012.751.751,0,0,1,.34.469.751.751,0,0,1-.091.572.752.752,0,0,1-.645.36.753.753,0,0,1-.4-.112,10.278,10.278,0,0,0-4.567-1.79,1.138,1.138,0,0,0-.824.252c-.544.544-.22,2.144.845,4.176a33.693,33.693,0,0,0,5.931,7.685,33.694,33.694,0,0,0,7.685,5.931,8.126,8.126,0,0,0,3.345,1.1,1.147,1.147,0,0,0,.831-.255c.432-.432.308-1.59-.332-3.1a.751.751,0,0,1-.005-.579.752.752,0,0,1,.406-.412.749.749,0,0,1,.295-.06.755.755,0,0,1,.7.461c1.173,2.767.653,4.115.009,4.758a2.586,2.586,0,0,1-1.905.7Z" transform="translate(-860.354 90.388)"/>
          <path id="패스_3562" data-name="패스 3562" d="M862.384-90.74a11.03,11.03,0,0,1,5.239,1.98.54.54,0,0,1,.177.743.54.54,0,0,1-.461.258.537.537,0,0,1-.282-.08,10.4,10.4,0,0,0-4.68-1.822,1.341,1.341,0,0,0-.977.315c-.622.622-.321,2.278.806,4.43a33.9,33.9,0,0,0,5.97,7.738,33.9,33.9,0,0,0,7.738,5.97,8.243,8.243,0,0,0,3.446,1.125,1.35,1.35,0,0,0,.984-.318c.5-.5.4-1.72-.286-3.336a.54.54,0,0,1,.286-.708.538.538,0,0,1,.211-.043.54.54,0,0,1,.5.329c1.126,2.656.652,3.925.055,4.522a2.363,2.363,0,0,1-1.752.632h0a8.9,8.9,0,0,1-3.942-1.246,35,35,0,0,1-8-6.163,34.994,34.994,0,0,1-6.163-8c-1.793-3.421-1.323-4.985-.613-5.695a2.371,2.371,0,0,1,1.747-.63m0-.432a2.785,2.785,0,0,0-2.053.757c-.812.812-1.378,2.547.536,6.2a35.422,35.422,0,0,0,6.24,8.105,35.43,35.43,0,0,0,8.105,6.24,9.453,9.453,0,0,0,4.143,1.3,2.793,2.793,0,0,0,2.058-.759c.69-.691,1.257-2.118.037-5a.971.971,0,0,0-.9-.593.963.963,0,0,0-.38.078.973.973,0,0,0-.515,1.274c.712,1.679.649,2.591.378,2.862a.965.965,0,0,1-.678.192,7.929,7.929,0,0,1-3.245-1.075,33.466,33.466,0,0,1-7.633-5.892,33.466,33.466,0,0,1-5.893-7.633c-1.142-2.179-1.266-3.541-.883-3.923a.956.956,0,0,1,.671-.189,10.092,10.092,0,0,1,4.454,1.758.97.97,0,0,0,.508.144.967.967,0,0,0,.829-.463.966.966,0,0,0,.117-.735.966.966,0,0,0-.437-.6,11.332,11.332,0,0,0-5.465-2.044Z" transform="translate(-859.577 91.172)"/>
        </g>
      </g>
      <g id="그룹_507" data-name="그룹 507" transform="translate(16.661 12.594)">
        <g id="그룹_506" data-name="그룹 506">
          <path id="패스_3563" data-name="패스 3563" d="M885.744-18.138a.752.752,0,0,1-.593-.286,63.792,63.792,0,0,1-7.706-12.38.751.751,0,0,1-.029-.578.753.753,0,0,1,.389-.429.755.755,0,0,1,.323-.073.76.76,0,0,1,.684.433,62.3,62.3,0,0,0,7.524,12.086.75.75,0,0,1,.159.557.749.749,0,0,1-.281.506A.756.756,0,0,1,885.744-18.138Z" transform="translate(-877.156 32.099)"/>
          <path id="패스_3564" data-name="패스 3564" d="M877.344-32.45a.539.539,0,0,1,.489.309,62.524,62.524,0,0,0,7.55,12.128.54.54,0,0,1-.087.759.538.538,0,0,1-.336.117.539.539,0,0,1-.423-.2,63.6,63.6,0,0,1-7.68-12.338.54.54,0,0,1,.258-.719.539.539,0,0,1,.231-.052m0-.432h0a.966.966,0,0,0-.415.093.966.966,0,0,0-.5.551.965.965,0,0,0,.036.743A64.013,64.013,0,0,0,884.2-19.072a.967.967,0,0,0,.762.368.975.975,0,0,0,.6-.211.974.974,0,0,0,.157-1.366,62.075,62.075,0,0,1-7.5-12.044.977.977,0,0,0-.879-.557Z" transform="translate(-876.371 32.882)"/>
        </g>
      </g>
      <g id="그룹_509" data-name="그룹 509" transform="translate(12.04 16.486)">
        <g id="그룹_508" data-name="그룹 508" transform="translate(0 0)">
          <path id="패스_3565" data-name="패스 3565" d="M862.7-2.3a.76.76,0,0,1-.613-.312,63.828,63.828,0,0,1-6.032-10.177.757.757,0,0,1,.36-1.007.748.748,0,0,1,.323-.073.76.76,0,0,1,.684.433A62.305,62.305,0,0,0,863.314-3.5a.757.757,0,0,1-.168,1.056A.751.751,0,0,1,862.7-2.3Z" transform="translate(-855.769 14.086)"/>
          <path id="패스_3566" data-name="패스 3566" d="M855.956-14.438a.54.54,0,0,1,.489.309,62.5,62.5,0,0,0,5.909,9.969.54.54,0,0,1-.12.754.537.537,0,0,1-.317.1.539.539,0,0,1-.438-.223,63.569,63.569,0,0,1-6.011-10.142.54.54,0,0,1,.257-.719.539.539,0,0,1,.231-.052m0-.432h0a.965.965,0,0,0-.415.094.966.966,0,0,0-.5.551.965.965,0,0,0,.036.743,64.008,64.008,0,0,0,6.052,10.211.975.975,0,0,0,.787.4.966.966,0,0,0,.571-.185.974.974,0,0,0,.216-1.358,62.054,62.054,0,0,1-5.868-9.9.977.977,0,0,0-.879-.557Z" transform="translate(-854.983 14.87)"/>
        </g>
      </g>
      <g id="그룹_511" data-name="그룹 511" transform="translate(8.634 7.565)">
        <g id="그룹_510" data-name="그룹 510">
          <path id="패스_3567" data-name="패스 3567" d="M841.967-50.588a.758.758,0,0,1-.713-.5c-.359-1.017-.7-2.059-1-3.1a.75.75,0,0,1,.061-.576.75.75,0,0,1,.45-.364.754.754,0,0,1,.215-.031.76.76,0,0,1,.725.542c.3,1.01.628,2.027.979,3.021a.752.752,0,0,1-.031.578.751.751,0,0,1-.43.387A.755.755,0,0,1,841.967-50.588Z" transform="translate(-840.003 55.376)"/>
          <path id="패스_3568" data-name="패스 3568" d="M840.192-55.728a.54.54,0,0,1,.518.387c.3,1.014.63,2.034.983,3.032a.54.54,0,0,1-.329.689.54.54,0,0,1-.18.031.54.54,0,0,1-.509-.361c-.358-1.015-.695-2.053-1-3.086a.54.54,0,0,1,.365-.671.539.539,0,0,1,.153-.022m0-.432h0a.978.978,0,0,0-.276.04.966.966,0,0,0-.579.468.966.966,0,0,0-.078.74c.307,1.039.646,2.085,1.007,3.107a.974.974,0,0,0,.917.649.969.969,0,0,0,.324-.056.966.966,0,0,0,.553-.5.966.966,0,0,0,.04-.743c-.35-.99-.678-2-.976-3.011a.978.978,0,0,0-.932-.7Z" transform="translate(-839.219 56.16)"/>
        </g>
      </g>
      <g id="그룹_513" data-name="그룹 513" transform="translate(7.048 19.571)">
        <g id="그룹_512" data-name="그룹 512" transform="translate(0 0)">
          <path id="패스_3569" data-name="패스 3569" d="M838.9,11a.757.757,0,0,1-.621-.323,63.861,63.861,0,0,1-5.332-9.19.756.756,0,1,1,1.367-.647,62.3,62.3,0,0,0,5.205,8.971A.756.756,0,0,1,838.9,11Z" transform="translate(-832.663 -0.194)"/>
          <path id="패스_3570" data-name="패스 3570" d="M832.851-.157a.54.54,0,0,1,.489.309,62.511,62.511,0,0,0,5.223,9,.54.54,0,1,1-.886.618A63.587,63.587,0,0,1,832.363.614a.54.54,0,0,1,.488-.771m0-.432h0a.964.964,0,0,0-.415.093.966.966,0,0,0-.5.551.967.967,0,0,0,.037.743,64.024,64.024,0,0,0,5.35,9.221.972.972,0,1,0,1.595-1.112,62.111,62.111,0,0,1-5.187-8.94.976.976,0,0,0-.879-.557Z" transform="translate(-831.878 0.589)"/>
        </g>
      </g>
      <g id="그룹_515" data-name="그룹 515" transform="translate(2.42 22.994)">
        <g id="그룹_514" data-name="그룹 514" transform="translate(0 0)">
          <path id="패스_3571" data-name="패스 3571" d="M816.2,24.935a.753.753,0,0,1-.636-.346,63.677,63.677,0,0,1-4.038-7.256.756.756,0,1,1,1.367-.647,62.165,62.165,0,0,0,3.941,7.083.756.756,0,0,1-.635,1.166Z" transform="translate(-811.24 -16.037)"/>
          <path id="패스_3572" data-name="패스 3572" d="M811.428,15.684a.54.54,0,0,1,.489.309,62.373,62.373,0,0,0,3.955,7.107.54.54,0,0,1-.908.586,63.487,63.487,0,0,1-4.024-7.231.54.54,0,0,1,.488-.771m0-.432h0a.972.972,0,0,0-.878,1.389,63.918,63.918,0,0,0,4.051,7.281.972.972,0,0,0,1.634-1.054,61.874,61.874,0,0,1-3.928-7.058.977.977,0,0,0-.879-.557Z" transform="translate(-810.455 -15.252)"/>
        </g>
      </g>
    </g>
    <g id="그룹_518" data-name="그룹 518" transform="translate(815.893 -151.955)">
      <g id="그룹_517" data-name="그룹 517" transform="translate(0 0)">
        <path id="패스_3573" data-name="패스 3573" d="M878.333-125.338a.754.754,0,0,1-.7-.464,4.866,4.866,0,0,1,.048-3.859.758.758,0,0,1,.69-.447.75.75,0,0,1,.309.066.757.757,0,0,1,.381,1,3.349,3.349,0,0,0-.033,2.656.757.757,0,0,1-.405.99A.751.751,0,0,1,878.333-125.338Z" transform="translate(-877.044 130.324)"/>
        <path id="패스_3574" data-name="패스 3574" d="M877.591-130.676a.54.54,0,0,1,.22.047.54.54,0,0,1,.272.714,3.567,3.567,0,0,0-.035,2.828.54.54,0,0,1-.289.707.539.539,0,0,1-.208.042.54.54,0,0,1-.5-.331,4.651,4.651,0,0,1,.046-3.687.54.54,0,0,1,.493-.319m0-.432h0a.974.974,0,0,0-.888.574,5.085,5.085,0,0,0-.05,4.031.97.97,0,0,0,.9.6.967.967,0,0,0,.375-.076.966.966,0,0,0,.524-.528.966.966,0,0,0,0-.744,3.134,3.134,0,0,1,.031-2.484.973.973,0,0,0-.489-1.285.969.969,0,0,0-.4-.085Z" transform="translate(-876.261 131.108)"/>
      </g>
    </g>
    <g id="그룹_520" data-name="그룹 520" transform="translate(816.473 -154.367)">
      <g id="그룹_519" data-name="그룹 519" transform="translate(0 0)">
        <path id="패스_3575" data-name="패스 3575" d="M880.7-124.532a.754.754,0,0,1-.585-.276.757.757,0,0,1,.1-1.064c3.88-3.186,8.312-7.7,7.4-11.084a3.842,3.842,0,0,0-2.2-2.539,3.274,3.274,0,0,0-1.268-.261,3.181,3.181,0,0,0-1.582.426.754.754,0,0,1-.372.1.757.757,0,0,1-.659-.384.75.75,0,0,1-.071-.574.751.751,0,0,1,.356-.456,4.671,4.671,0,0,1,2.325-.624,4.787,4.787,0,0,1,1.854.38,5.365,5.365,0,0,1,3.074,3.539c.9,3.347-1.751,7.6-7.9,12.648A.757.757,0,0,1,880.7-124.532Z" transform="translate(-879.728 141.488)"/>
        <path id="패스_3576" data-name="패스 3576" d="M883.365-141.84a4.582,4.582,0,0,1,1.771.363,5.148,5.148,0,0,1,2.948,3.4c.881,3.258-1.751,7.438-7.824,12.425a.537.537,0,0,1-.342.123.539.539,0,0,1-.418-.2.54.54,0,0,1,.075-.76c3.929-3.226,8.413-7.807,7.467-11.308a4.06,4.06,0,0,0-2.322-2.682,3.5,3.5,0,0,0-1.351-.277,3.411,3.411,0,0,0-1.689.454.538.538,0,0,1-.266.07.54.54,0,0,1-.471-.274.54.54,0,0,1,.2-.736,4.483,4.483,0,0,1,2.218-.6m0-.432h0a4.887,4.887,0,0,0-2.431.652.974.974,0,0,0-.367,1.325.975.975,0,0,0,.847.493.973.973,0,0,0,.478-.126,2.965,2.965,0,0,1,1.476-.4,3.06,3.06,0,0,1,1.185.244,3.625,3.625,0,0,1,2.072,2.4c.692,2.557-1.91,6.415-7.324,10.861a.974.974,0,0,0-.134,1.368.969.969,0,0,0,.752.355.974.974,0,0,0,.617-.221c6.216-5.1,8.9-9.435,7.967-12.872a5.583,5.583,0,0,0-3.2-3.683,5,5,0,0,0-1.937-.4Z" transform="translate(-878.945 142.272)"/>
      </g>
    </g>
    <g id="그룹_522" data-name="그룹 522" transform="translate(835.589 -134.669)">
      <g id="그룹_521" data-name="그룹 521" transform="translate(0)">
        <path id="패스_3577" data-name="패스 3577" d="M973.459-40.219a4.814,4.814,0,0,1-1.87-.377.75.75,0,0,1-.407-.411.749.749,0,0,1,0-.579.754.754,0,0,1,.7-.464.75.75,0,0,1,.292.059,3.315,3.315,0,0,0,1.287.26,3.344,3.344,0,0,0,2.906-1.693,3.182,3.182,0,0,0,.165-2.85,3.843,3.843,0,0,0-2.539-2.2,3.573,3.573,0,0,0-.931-.12,6.883,6.883,0,0,0-3.488,1.191.755.755,0,0,1-.4.112.752.752,0,0,1-.645-.361.758.758,0,0,1,.249-1.04,8.338,8.338,0,0,1,4.28-1.415,5.079,5.079,0,0,1,1.325.173,5.366,5.366,0,0,1,3.54,3.074,4.667,4.667,0,0,1-.245,4.179,4.86,4.86,0,0,1-4.223,2.461Z" transform="translate(-968.206 50.321)"/>
        <path id="패스_3578" data-name="패스 3578" d="M972.276-50.673a4.84,4.84,0,0,1,1.269.165,5.147,5.147,0,0,1,3.4,2.949,4.453,4.453,0,0,1-.233,3.989,4.636,4.636,0,0,1-4.035,2.351h0a4.616,4.616,0,0,1-1.787-.36.54.54,0,0,1-.289-.707.541.541,0,0,1,.5-.331.538.538,0,0,1,.208.042,3.544,3.544,0,0,0,1.371.276,3.554,3.554,0,0,0,3.094-1.8,3.394,3.394,0,0,0,.177-3.04,4.061,4.061,0,0,0-2.682-2.322,3.764,3.764,0,0,0-.987-.127,7.075,7.075,0,0,0-3.6,1.223.538.538,0,0,1-.282.08.539.539,0,0,1-.461-.258.54.54,0,0,1,.178-.743,8.111,8.111,0,0,1,4.167-1.383m0-.432h0a8.546,8.546,0,0,0-4.393,1.447.966.966,0,0,0-.437.6.966.966,0,0,0,.117.735.966.966,0,0,0,.829.464A.971.971,0,0,0,968.9-48a6.677,6.677,0,0,1,3.375-1.159,3.353,3.353,0,0,1,.875.112,3.625,3.625,0,0,1,2.4,2.072,2.97,2.97,0,0,1-.154,2.661,3.127,3.127,0,0,1-2.718,1.584,3.1,3.1,0,0,1-1.2-.243.968.968,0,0,0-.375-.076.971.971,0,0,0-.9.6.973.973,0,0,0,.521,1.272,5.028,5.028,0,0,0,1.954.394,5.076,5.076,0,0,0,4.411-2.57,4.877,4.877,0,0,0,.256-4.368,5.582,5.582,0,0,0-3.683-3.2,5.286,5.286,0,0,0-1.381-.18Z" transform="translate(-967.419 51.105)"/>
      </g>
    </g>
    <g id="그룹_524" data-name="그룹 524" transform="translate(828.735 -131.883)">
      <g id="그룹_523" data-name="그룹 523" transform="translate(0 0)">
        <path id="패스_3579" data-name="패스 3579" d="M937.451-30.691a.757.757,0,0,1-.48-.172.751.751,0,0,1-.273-.51.752.752,0,0,1,.169-.554,37.962,37.962,0,0,1,4.915-5.106.757.757,0,0,1,.484-.175.754.754,0,0,1,.581.272.757.757,0,0,1-.1,1.065,36.491,36.491,0,0,0-4.715,4.9A.754.754,0,0,1,937.451-30.691Z" transform="translate(-936.479 37.424)"/>
        <path id="패스_3580" data-name="패스 3580" d="M941.482-37.776a.539.539,0,0,1,.415.194.54.54,0,0,1-.069.761,36.71,36.71,0,0,0-4.743,4.933.539.539,0,0,1-.418.2.538.538,0,0,1-.342-.123.54.54,0,0,1-.075-.76,37.783,37.783,0,0,1,4.887-5.077.538.538,0,0,1,.345-.125m0-.432h0a.973.973,0,0,0-.622.225,38.172,38.172,0,0,0-4.944,5.135.966.966,0,0,0-.216.712.965.965,0,0,0,.351.656.974.974,0,0,0,.617.221.969.969,0,0,0,.752-.355,36.3,36.3,0,0,1,4.686-4.875.974.974,0,0,0,.124-1.369.97.97,0,0,0-.747-.35Z" transform="translate(-935.695 38.208)"/>
      </g>
    </g>
    <g id="그룹_526" data-name="그룹 526" transform="translate(837.895 -150.438)">
      <g id="그룹_525" data-name="그룹 525" transform="translate(0 0)">
        <path id="패스_3581" data-name="패스 3581" d="M979.846-119.42a.752.752,0,0,1-.535-.221.752.752,0,0,1-.222-.535.751.751,0,0,1,.222-.535l2.155-2.155a.752.752,0,0,1,.535-.221.752.752,0,0,1,.535.221.752.752,0,0,1,.221.535.751.751,0,0,1-.221.535l-2.155,2.155A.751.751,0,0,1,979.846-119.42Z" transform="translate(-978.874 123.303)"/>
        <path id="패스_3582" data-name="패스 3582" d="M981.218-123.655a.538.538,0,0,1,.382.158.54.54,0,0,1,0,.764l-2.155,2.155a.539.539,0,0,1-.382.158.538.538,0,0,1-.382-.158.54.54,0,0,1,0-.764l2.155-2.155a.539.539,0,0,1,.382-.158m0-.432a.966.966,0,0,0-.687.285l-2.155,2.155a.967.967,0,0,0-.285.688.967.967,0,0,0,.285.688.967.967,0,0,0,.688.285.966.966,0,0,0,.687-.285l2.155-2.155a.966.966,0,0,0,.285-.687.966.966,0,0,0-.285-.687.966.966,0,0,0-.687-.285Z" transform="translate(-978.091 124.087)"/>
      </g>
    </g>
    <g id="그룹_528" data-name="그룹 528" transform="translate(821.828 -145.883)">
      <g id="그룹_527" data-name="그룹 527" transform="translate(0 0)">
        <path id="패스_3583" data-name="패스 3583" d="M905.482-86.826a.753.753,0,0,1-.535-.221.752.752,0,0,1-.221-.535.751.751,0,0,1,.221-.535l13.667-13.667a.752.752,0,0,1,.535-.221.752.752,0,0,1,.535.221.751.751,0,0,1,.221.535.751.751,0,0,1-.221.535L906.017-87.047A.752.752,0,0,1,905.482-86.826Z" transform="translate(-904.51 102.221)"/>
        <path id="패스_3584" data-name="패스 3584" d="M918.365-102.573a.539.539,0,0,1,.382.158.54.54,0,0,1,0,.764L905.08-87.984a.539.539,0,0,1-.382.158.538.538,0,0,1-.382-.158.54.54,0,0,1,0-.764l13.667-13.667a.538.538,0,0,1,.382-.158m0-.432a.966.966,0,0,0-.687.285L904.011-89.054a.967.967,0,0,0-.285.688.967.967,0,0,0,.285.688.967.967,0,0,0,.688.285.967.967,0,0,0,.688-.285l13.667-13.667a.966.966,0,0,0,.285-.687.966.966,0,0,0-.285-.688.966.966,0,0,0-.687-.285Z" transform="translate(-903.726 103.005)"/>
      </g>
    </g>
    <g id="그룹_530" data-name="그룹 530" transform="translate(819.009 -140.543)">
      <g id="그룹_529" data-name="그룹 529" transform="translate(0 0)">
        <path id="패스_3585" data-name="패스 3585" d="M892.433-70.925a.753.753,0,0,1-.518-.205.752.752,0,0,1-.238-.528.753.753,0,0,1,.205-.541l4.567-4.856a.76.76,0,0,1,.551-.238.754.754,0,0,1,.518.205.752.752,0,0,1,.238.528.753.753,0,0,1-.205.541l-4.567,4.856A.759.759,0,0,1,892.433-70.925Z" transform="translate(-891.461 77.509)"/>
        <path id="패스_3586" data-name="패스 3586" d="M896.218-77.861a.538.538,0,0,1,.37.147.54.54,0,0,1,.023.764l-4.567,4.856a.539.539,0,0,1-.393.17.538.538,0,0,1-.37-.147.54.54,0,0,1-.023-.764l4.567-4.856a.539.539,0,0,1,.394-.17m0-.432h0a.976.976,0,0,0-.708.306l-4.567,4.856a.973.973,0,0,0,.042,1.374.968.968,0,0,0,.666.264.976.976,0,0,0,.708-.306l4.567-4.856a.973.973,0,0,0-.042-1.374.969.969,0,0,0-.666-.264Z" transform="translate(-890.679 78.293)"/>
      </g>
    </g>
    <g id="그룹_532" data-name="그룹 532" transform="translate(825.555 -157.7)">
      <g id="그룹_531" data-name="그룹 531" transform="translate(0 0)">
        <path id="패스_3587" data-name="패스 3587" d="M922.731-140.135a.754.754,0,0,1-.518-.205.757.757,0,0,1-.033-1.069l1.012-1.076a13.879,13.879,0,0,0,3.28-6.214,13.89,13.89,0,0,0-.191-7.033.757.757,0,0,1,.514-.938.759.759,0,0,1,.212-.03.76.76,0,0,1,.726.545,15.412,15.412,0,0,1,.212,7.8,15.4,15.4,0,0,1-3.644,6.9l-1.018,1.082A.759.759,0,0,1,922.731-140.135Z" transform="translate(-921.759 156.916)"/>
        <path id="패스_3588" data-name="패스 3588" d="M926.223-157.268a.541.541,0,0,1,.518.389,15.19,15.19,0,0,1,.209,7.691,15.19,15.19,0,0,1-3.593,6.8l-1.016,1.081a.539.539,0,0,1-.394.17.538.538,0,0,1-.37-.147.54.54,0,0,1-.023-.764l1.012-1.076a14.1,14.1,0,0,0,3.333-6.313,14.106,14.106,0,0,0-.194-7.142.54.54,0,0,1,.367-.67.543.543,0,0,1,.152-.022m0-.432h0a.973.973,0,0,0-.273.039.974.974,0,0,0-.661,1.206,13.675,13.675,0,0,1,.188,6.923,13.664,13.664,0,0,1-3.23,6.119l-1.008,1.072a.973.973,0,0,0,.042,1.374.969.969,0,0,0,.666.264.975.975,0,0,0,.708-.306l1.016-1.081a15.626,15.626,0,0,0,3.7-7,15.624,15.624,0,0,0-.215-7.91.977.977,0,0,0-.933-.7Z" transform="translate(-920.976 157.7)"/>
      </g>
    </g>
    <g id="그룹_534" data-name="그룹 534" transform="translate(825.3 -140.801)">
      <g id="그룹_533" data-name="그룹 533" transform="translate(0 0)">
        <path id="패스_3589" data-name="패스 3589" d="M921.55-65.569a.759.759,0,0,1-.551-.238.751.751,0,0,1-.205-.541.752.752,0,0,1,.238-.528l8.035-7.558a15.42,15.42,0,0,1,6.907-3.651,15.383,15.383,0,0,1,3.494-.4,15.369,15.369,0,0,1,4.306.614.753.753,0,0,1,.451.362.753.753,0,0,1,.063.576.76.76,0,0,1-.726.544.752.752,0,0,1-.212-.03,13.868,13.868,0,0,0-3.883-.553,13.873,13.873,0,0,0-3.15.362,13.894,13.894,0,0,0-6.221,3.286l-8.028,7.551A.754.754,0,0,1,921.55-65.569Z" transform="translate(-920.578 78.702)"/>
        <path id="패스_3590" data-name="패스 3590" d="M938.686-79.054a15.167,15.167,0,0,1,4.246.605.54.54,0,0,1,.367.67.54.54,0,0,1-.519.389.54.54,0,0,1-.151-.022,14.09,14.09,0,0,0-3.943-.562,14.073,14.073,0,0,0-3.2.368,14.11,14.11,0,0,0-6.318,3.337l-8.03,7.553a.538.538,0,0,1-.37.147.539.539,0,0,1-.394-.17.54.54,0,0,1,.023-.764l8.035-7.558a15.2,15.2,0,0,1,6.808-3.6,15.157,15.157,0,0,1,3.445-.4m0-.432a15.6,15.6,0,0,0-3.543.407,15.635,15.635,0,0,0-7,3.7L920.1-67.818a.973.973,0,0,0-.042,1.374.976.976,0,0,0,.708.306.968.968,0,0,0,.666-.264l8.03-7.553a13.672,13.672,0,0,1,6.12-3.231,13.651,13.651,0,0,1,3.1-.356,13.642,13.642,0,0,1,3.823.545.979.979,0,0,0,.272.039.977.977,0,0,0,.933-.7.967.967,0,0,0-.081-.74.965.965,0,0,0-.58-.466,15.588,15.588,0,0,0-4.367-.623Z" transform="translate(-919.796 79.486)"/>
      </g>
    </g>
  </g>
</svg>
