<svg xmlns="http://www.w3.org/2000/svg" width="45.685" height="50" viewBox="0 0 45.685 50">
  <g id="그룹_500" data-name="그룹 500" transform="translate(-314.189 -70.426)">
    <path id="패스_3551" data-name="패스 3551" d="M356.216,98.817c-3.214-3.214-6.54-4.295-10.171-3.307-3.228.879-6.333,3.339-9.013,5.786-2.68-2.447-5.784-4.907-9.012-5.786-3.631-.989-6.958.094-10.171,3.307-3.546,3.546-4.5,7.255-2.923,11.338,1.305,3.374,4.141,6.665,8.293,10.879l.03.03c.708.718,1.438,1.448,2.144,2.154a37.746,37.746,0,0,0,11.214,7.918,1.054,1.054,0,0,0,.848,0,37.744,37.744,0,0,0,11.214-7.918c.709-.709,1.442-1.442,2.146-2.155l.03-.03c4.152-4.214,6.988-7.5,8.293-10.878C360.717,106.071,359.761,102.363,356.216,98.817ZM316.89,109.395c-1.281-3.312-.526-6.115,2.447-9.088,2.045-2.045,4.04-3.039,6.156-3.039a7.5,7.5,0,0,1,1.973.275c2.264.617,4.7,2.188,8.021,5.2-1.193,1.142-2.4,2.354-3.673,3.623a37.031,37.031,0,0,0-8.252,12.005C320.23,114.911,317.947,112.125,316.89,109.395Zm30.289,12.334a36.017,36.017,0,0,1-10.149,7.287,36.007,36.007,0,0,1-10.148-7.288c-.558-.558-1.131-1.13-1.695-1.7a33.937,33.937,0,0,1,8.116-12.177c1.291-1.291,2.523-2.523,3.727-3.673,1.2,1.15,2.436,2.382,3.727,3.673a33.957,33.957,0,0,1,8.117,12.175C348.314,120.595,347.739,121.169,347.18,121.729Zm9.993-12.335c-1.056,2.729-3.34,5.515-6.672,8.974a37.047,37.047,0,0,0-8.252-12c-1.269-1.269-2.481-2.481-3.674-3.622,3.324-3.01,5.758-4.582,8.023-5.2,2.877-.783,5.459.1,8.128,2.764C357.7,103.28,358.454,106.082,357.173,109.394Z" transform="translate(0 -10.799)"/>
    <path id="패스_3552" data-name="패스 3552" d="M326.015,83.294a6.434,6.434,0,1,0-6.435-6.434A6.441,6.441,0,0,0,326.015,83.294Zm0-10.762a4.327,4.327,0,1,1-4.328,4.327A4.332,4.332,0,0,1,326.015,72.533Z" transform="translate(-2.354 0)"/>
    <path id="패스_3553" data-name="패스 3553" d="M373.485,83.294a6.434,6.434,0,1,0-6.434-6.434A6.442,6.442,0,0,0,373.485,83.294Zm0-10.762a4.327,4.327,0,1,1-4.327,4.327A4.332,4.332,0,0,1,373.485,72.533Z" transform="translate(-23.083 0)"/>
    <path id="패스_3554" data-name="패스 3554" d="M351.65,94.391a3.983,3.983,0,1,0-3.983-3.983A3.988,3.988,0,0,0,351.65,94.391Zm0-6.562a2.579,2.579,0,1,1-2.578,2.579A2.582,2.582,0,0,1,351.65,87.829Z" transform="translate(-14.618 -6.986)"/>
  </g>
</svg>
