<svg id="_469_Beach_sunbed_vacation" data-name="469, Beach, sunbed, vacation" xmlns="http://www.w3.org/2000/svg" width="63.798" height="49.722" viewBox="0 0 63.798 49.722">
  <g id="그룹_402" data-name="그룹 402" transform="translate(0 0)">
    <g id="그룹_386" data-name="그룹 386" transform="translate(26.573 2.505)">
      <path id="패스_874" data-name="패스 874" d="M476.059-146.341H441.583a1.384,1.384,0,0,1-1.375-1.357,18.519,18.519,0,0,1,18.554-18.344A18.618,18.618,0,0,1,477.433-147.7,1.315,1.315,0,0,1,476.059-146.341Zm-33.1-2.6h31.727a15.89,15.89,0,0,0-15.922-14.38A15.694,15.694,0,0,0,442.957-148.945Z" transform="translate(-440.208 166.043)" fill="#fff"/>
    </g>
    <g id="그룹_387" data-name="그룹 387" transform="translate(33.216 2.392)">
      <path id="패스_875" data-name="패스 875" d="M466.188-146.287H445a1.384,1.384,0,0,1-1.375-1.357,24.5,24.5,0,0,1,3.321-12.8c2.292-3.624,5.269-5.662,8.59-5.662s6.416,2.038,8.592,5.662a23.933,23.933,0,0,1,3.321,12.8A1.171,1.171,0,0,1,466.188-146.287Zm-19.814-2.6h18.554a21.281,21.281,0,0,0-2.864-10.077c-1.717-2.831-4.007-4.416-6.412-4.416s-4.583,1.585-6.414,4.416A21.28,21.28,0,0,0,446.374-148.89Z" transform="translate(-443.625 166.101)" fill="#fff"/>
    </g>
    <g id="그룹_388" data-name="그룹 388" transform="translate(39.975 2.505)">
      <path id="패스_876" data-name="패스 876" d="M456.377-146.341h-7.9A1.384,1.384,0,0,1,447.1-147.7c0-1.927.115-18.344,5.269-18.344s5.269,16.532,5.269,18.344A1.292,1.292,0,0,1,456.377-146.341Zm-6.642-2.6H455a74.606,74.606,0,0,0-.918-9.737,11.064,11.064,0,0,0-1.717-4.643c-.344.34-1.032,1.585-1.719,4.643A48.511,48.511,0,0,0,449.735-148.945Z" transform="translate(-447.101 166.043)" fill="#fff"/>
    </g>
    <g id="그룹_389" data-name="그룹 389" transform="translate(2.749 40.551)">
      <path id="패스_877" data-name="패스 877" d="M466.441-137.3H429.328a1.412,1.412,0,0,1-1.26-.793,1.262,1.262,0,0,1,.344-1.472l6.644-6.568a1.314,1.314,0,0,1,.916-.338H459.8a1.31,1.31,0,0,1,.916.338l6.529,6.455a1.425,1.425,0,0,1,.459,1.019A1.173,1.173,0,0,1,466.441-137.3Zm-33.9-2.605h30.7l-4.009-3.962H436.43Z" transform="translate(-427.955 146.475)" fill="#fff"/>
    </g>
    <g id="그룹_390" data-name="그룹 390" transform="translate(43.869 19.49)">
      <path id="패스_878" data-name="패스 878" d="M450.479-127.075a1.386,1.386,0,0,1-1.375-1.359v-27.514a1.383,1.383,0,0,1,1.375-1.359,1.315,1.315,0,0,1,1.373,1.359v27.514A1.467,1.467,0,0,1,450.479-127.075Z" transform="translate(-449.104 157.307)" fill="#fff"/>
    </g>
    <g id="그룹_391" data-name="그룹 391" transform="translate(22.577 31.391)">
      <path id="패스_879" data-name="패스 879" d="M439.514-139.423a1.535,1.535,0,0,1-.916-.34,1.253,1.253,0,0,1-.115-1.812l7.9-9.169a1.286,1.286,0,0,1,1.831-.115,1.254,1.254,0,0,1,.115,1.812l-7.9,9.171C440.317-139.538,439.973-139.423,439.514-139.423Z" transform="translate(-438.153 151.186)" fill="#fff"/>
    </g>
    <g id="그룹_392" data-name="그룹 392" transform="translate(13.347 35.342)">
      <path id="패스_880" data-name="패스 880" d="M434.719-141.342a2.16,2.16,0,0,1-.8-.227,1.265,1.265,0,0,1-.229-1.81l4.009-5.209a1.371,1.371,0,0,1,1.031-.566h9.278a1.386,1.386,0,0,1,1.375,1.359,1.316,1.316,0,0,1-1.375,1.357h-8.59l-3.552,4.756A1.953,1.953,0,0,1,434.719-141.342Z" transform="translate(-433.406 149.154)" fill="#fff"/>
    </g>
    <g id="그룹_393" data-name="그룹 393" transform="translate(0 47.004)">
      <path id="패스_881" data-name="패스 881" d="M486.33-140.438H427.916a1.386,1.386,0,0,1-1.375-1.359,1.385,1.385,0,0,1,1.375-1.359H486.33A1.384,1.384,0,0,1,487.7-141.8,1.316,1.316,0,0,1,486.33-140.438Z" transform="translate(-426.541 143.156)" fill="#fff"/>
    </g>
    <g id="그룹_394" data-name="그룹 394" transform="translate(33.216 40.436)">
      <path id="패스_882" data-name="패스 882" d="M450.269-143.816H445a1.384,1.384,0,0,1-1.375-1.359A1.385,1.385,0,0,1,445-146.534h5.269a1.386,1.386,0,0,1,1.375,1.359A1.316,1.316,0,0,1,450.269-143.816Z" transform="translate(-443.625 146.534)" fill="#fff"/>
    </g>
    <g id="그룹_395" data-name="그룹 395" transform="translate(9.461 17.027)">
      <path id="패스_883" data-name="패스 883" d="M432.711-154.864a1.309,1.309,0,0,1-.916-.342,1.25,1.25,0,0,1,0-1.81,4.979,4.979,0,0,1,7.215,0,1.166,1.166,0,0,1,0,1.81,1.2,1.2,0,0,1-1.831,0,2.094,2.094,0,0,0-2.176-.679,4.687,4.687,0,0,0-1.26.679A1.863,1.863,0,0,1,432.711-154.864Z" transform="translate(-431.407 158.574)" fill="#fff"/>
    </g>
    <g id="그룹_396" data-name="그룹 396" transform="translate(14.689 17.027)">
      <path id="패스_884" data-name="패스 884" d="M440.711-154.864a1.3,1.3,0,0,1-.916-.342,4.725,4.725,0,0,0-1.26-.679,2.093,2.093,0,0,0-2.176.679,1.2,1.2,0,0,1-1.834,0,1.166,1.166,0,0,1,0-1.81,4.979,4.979,0,0,1,7.215,0,1.166,1.166,0,0,1,0,1.81A1.852,1.852,0,0,1,440.711-154.864Z" transform="translate(-434.096 158.574)" fill="#fff"/>
    </g>
    <g id="그룹_397" data-name="그룹 397" transform="translate(25.341)">
      <path id="패스_885" data-name="패스 885" d="M444.815-163.92a1.3,1.3,0,0,1-.916-.34,1.272,1.272,0,0,0-1.375-.451,1.24,1.24,0,0,0-.688.451,1.2,1.2,0,0,1-1.832,0,1.166,1.166,0,0,1,0-1.81,4.035,4.035,0,0,1,5.841,0,1.166,1.166,0,0,1,0,1.81A1.854,1.854,0,0,1,444.815-163.92Z" transform="translate(-439.575 167.331)" fill="#fff"/>
    </g>
    <g id="그룹_398" data-name="그룹 398" transform="translate(29.236)">
      <path id="패스_886" data-name="패스 886" d="M442.924-163.92a1.3,1.3,0,0,1-.916-.34,1.166,1.166,0,0,1,0-1.81,4.035,4.035,0,0,1,5.841,0l-1.832,1.7h0a1.978,1.978,0,0,0-.8-.453,1.276,1.276,0,0,0-1.375.453A1.044,1.044,0,0,1,442.924-163.92Z" transform="translate(-441.578 167.331)" fill="#fff"/>
    </g>
    <g id="그룹_399" data-name="그룹 399" transform="translate(6.756 1.146)">
      <path id="패스_887" data-name="패스 887" d="M436.66-153.606a6.612,6.612,0,0,1-6.644-6.568,6.612,6.612,0,0,1,6.644-6.568,6.612,6.612,0,0,1,6.644,6.568A6.612,6.612,0,0,1,436.66-153.606Zm0-10.418a4.036,4.036,0,0,0-4.009,3.962,4.036,4.036,0,0,0,4.009,3.964,4.035,4.035,0,0,0,4.009-3.964A4.035,4.035,0,0,0,436.66-164.024Z" transform="translate(-430.016 166.742)" fill="#fff"/>
    </g>
    <g id="그룹_400" data-name="그룹 400" transform="translate(55.78 35.229)">
      <path id="패스_888" data-name="패스 888" d="M456.6-134.719a1.387,1.387,0,0,1-1.375-1.359v-11.775a1.385,1.385,0,0,1,1.375-1.359,1.315,1.315,0,0,1,1.375,1.359v11.775A1.386,1.386,0,0,1,456.6-134.719Z" transform="translate(-455.23 149.212)" fill="#fff"/>
    </g>
    <g id="그룹_401" data-name="그룹 401" transform="translate(50.513 43.039)">
      <path id="패스_889" data-name="패스 889" d="M453.894-138.512a1.385,1.385,0,0,1-1.373-1.359v-3.964a1.384,1.384,0,0,1,1.373-1.359,1.386,1.386,0,0,1,1.375,1.359v3.964A1.467,1.467,0,0,1,453.894-138.512Z" transform="translate(-452.521 145.195)" fill="#fff"/>
    </g>
  </g>
</svg>
