<svg xmlns="http://www.w3.org/2000/svg" width="58.644" height="50" viewBox="0 0 58.644 50">
  <g id="그룹_547" data-name="그룹 547" transform="translate(-1227.424 -1232.577)">
    <g id="그룹_543" data-name="그룹 543" transform="translate(1227.424 1232.577)">
      <path id="패스_3603" data-name="패스 3603" d="M1281.889,1247.2a.906.906,0,0,1-.626-.6q-3.3-9.854-14.3-8.91a9.359,9.359,0,0,0-3.228.913.328.328,0,0,0-.183.366l.052.253a.479.479,0,0,0,.714.4c5.29-1.862,11.381-.592,14.435,4.229q3.094,4.869-1.688,10.494a.132.132,0,0,0-.017.148.605.605,0,0,0,.957.33,3.309,3.309,0,0,0,1.053-.913,10.232,10.232,0,0,0,2.106-5.09.464.464,0,0,1,.591-.391,9.491,9.491,0,0,1,2.872,17.115,14.718,14.718,0,0,1-5.8,2.411.838.838,0,0,0-.679.818l.017,13.479a.838.838,0,0,1-.609.809,56.425,56.425,0,0,1-32.595-.061.794.794,0,0,1-.557-.757l.061-13.635a.5.5,0,0,0-.435-.54c-5.473-1.157-10.337-4.333-10.241-10.511q.1-6.591,6.952-9.136a.546.546,0,0,1,.731.444,9.761,9.761,0,0,0,3.106,6,.448.448,0,0,0,.757-.052l.148-.192a.332.332,0,0,0-.026-.5c-3.585-3.524-3.733-8.492-.279-12.042,6.03-6.2,18.716-3.524,19.482,5.864a.5.5,0,0,0,.531.5l.244.017a.384.384,0,0,0,.4-.382c-.043-6.526-6.43-10.694-12.347-10.494q-9.541.327-12.033,8.945a.777.777,0,0,1-.566.574c-5.325,1.592-9.224,6.308-8.318,11.921.87,5.438,5.186,8.91,10.3,10.041a.4.4,0,0,1,.339.426l-.017,13.478a1.127,1.127,0,0,0,.8,1.079,59.086,59.086,0,0,0,34.631-.017,1.083,1.083,0,0,0,.783-1.044l-.113-13.13a.718.718,0,0,1,.539-.748,29.907,29.907,0,0,0,3.95-1.619C1293.271,1262.828,1291.722,1250.272,1281.889,1247.2Z" transform="translate(-1231.967 -1237.107)"/>
      <path id="패스_3604" data-name="패스 3604" d="M1256.564,1282.577a59.031,59.031,0,0,1-17.249-2.606,1.6,1.6,0,0,1-1.134-1.53l.017-13.451a14.96,14.96,0,0,1-6.931-3.512,11.878,11.878,0,0,1-3.7-6.907,10.208,10.208,0,0,1,1.908-7.821,12.951,12.951,0,0,1,6.741-4.625.311.311,0,0,0,.245-.244l0-.01c1.718-5.937,5.914-9.061,12.47-9.285a13.448,13.448,0,0,1,9.6,3.622,10.1,10.1,0,0,1,3.233,7.341.856.856,0,0,1-.891.857h-.014l-.234-.016a.96.96,0,0,1-.977-.937,9.2,9.2,0,0,0-6.437-8.053,11.726,11.726,0,0,0-12.237,2.479c-3.253,3.343-3.142,8.02.269,11.375a.8.8,0,0,1,.072,1.121l-.149.193a.912.912,0,0,1-1.458.1,10.253,10.253,0,0,1-3.246-6.273.075.075,0,0,0-.1-.062c-4.4,1.635-6.577,4.482-6.644,8.7-.107,6.9,6.137,9.254,9.868,10.042a.968.968,0,0,1,.809,1l-.061,13.637a.322.322,0,0,0,.228.305,56.2,56.2,0,0,0,32.32.058.367.367,0,0,0,.27-.357l-.017-13.478a1.314,1.314,0,0,1,1.057-1.281,14.327,14.327,0,0,0,5.616-2.333,9.038,9.038,0,0,0,3.948-8.98,9.229,9.229,0,0,0-6.672-7.3,10.749,10.749,0,0,1-2.2,5.313,3.772,3.772,0,0,1-1.2,1.039,1.145,1.145,0,0,1-.934.132,1.166,1.166,0,0,1-.678-.674.6.6,0,0,1,.074-.642l.01-.012c3.065-3.609,3.6-6.859,1.649-9.936-2.722-4.3-8.429-5.955-13.881-4.037a1.029,1.029,0,0,1-.863-.037,1.012,1.012,0,0,1-.468-.707l-.052-.253a.8.8,0,0,1,.432-.887,9.873,9.873,0,0,1,3.4-.962c7.546-.653,12.522,2.452,14.794,9.23a.437.437,0,0,0,.317.3h0a12.5,12.5,0,0,1,6.1,4.084,11.249,11.249,0,0,1,2.446,6.165,10.711,10.711,0,0,1-1.368,6.15,12,12,0,0,1-5.216,4.765,30.623,30.623,0,0,1-4.012,1.644.257.257,0,0,0-.215.3l.113,13.126a1.561,1.561,0,0,1-1.126,1.5,62.611,62.611,0,0,1-17.617,2.62Zm-19.2-40.449a1.253,1.253,0,0,1-.886.9c-5.518,1.649-8.8,6.335-7.986,11.393.775,4.842,4.49,8.451,9.938,9.656a.864.864,0,0,1,.709.886l-.017,13.479a.657.657,0,0,0,.468.628,58.879,58.879,0,0,0,34.359-.019.615.615,0,0,0,.445-.592l-.113-13.126a1.19,1.19,0,0,1,.869-1.2,29.637,29.637,0,0,0,3.884-1.592c4.122-2.027,6.387-5.764,6.06-10a10.777,10.777,0,0,0-7.888-9.422,1.376,1.376,0,0,1-.933-.9c-2.145-6.4-6.666-9.212-13.818-8.594a8.878,8.878,0,0,0-2.967.823l.03.144a.473.473,0,0,0,.02.069.544.544,0,0,0,.083-.021,14.256,14.256,0,0,1,8.327-.4,11.124,11.124,0,0,1,6.655,4.823c2.14,3.368,1.611,7.022-1.569,10.863a.079.079,0,0,0,.015.011.341.341,0,0,0,.181-.062,2.837,2.837,0,0,0,.9-.784,9.823,9.823,0,0,0,2.015-4.863.935.935,0,0,1,1.187-.79,10.166,10.166,0,0,1,7.35,8.049,9.962,9.962,0,0,1-4.334,9.905,15.259,15.259,0,0,1-5.978,2.488.367.367,0,0,0-.3.355l.017,13.478a1.318,1.318,0,0,1-.951,1.263,58.3,58.3,0,0,1-16.351,2.392h-.1a57.832,57.832,0,0,1-16.408-2.455,1.264,1.264,0,0,1-.894-1.208l.061-13.637a.211.211,0,0,0-.006-.059.217.217,0,0,0-.055-.018,15.931,15.931,0,0,1-7.427-3.484,9.5,9.5,0,0,1-3.187-7.495c.073-4.589,2.516-7.809,7.259-9.571a1.017,1.017,0,0,1,1.363.827,9.337,9.337,0,0,0,2.962,5.711l.036.032c.008-.009.018-.02.029-.034l.1-.124a9.255,9.255,0,0,1-2.854-6.271,8.831,8.831,0,0,1,2.634-6.372,12.682,12.682,0,0,1,13.232-2.709,11.173,11.173,0,0,1,4.777,3.239,9.761,9.761,0,0,1,2.281,5.625.272.272,0,0,0,.011.064.247.247,0,0,0,.062.008h.021l.138.01a9.179,9.179,0,0,0-2.942-6.568,12.491,12.491,0,0,0-8.917-3.359C1242.774,1233.739,1238.981,1236.552,1237.366,1242.128Zm.881,22.875Zm2.188-14.959Z" transform="translate(-1227.424 -1232.577)"/>
    </g>
    <g id="그룹_544" data-name="그룹 544" transform="translate(1245.526 1239.169)">
      <path id="패스_3605" data-name="패스 3605" d="M1430.354,1313.464l.073-.074a.521.521,0,0,0,0-.738l-6.063-6.021a.523.523,0,0,0-.738,0l-.074.073a.522.522,0,0,0,0,.739l6.063,6.021A.524.524,0,0,0,1430.354,1313.464Z" transform="translate(-1423.021 -1306.104)"/>
      <path id="패스_3606" data-name="패스 3606" d="M1426.358,1310.376a.89.89,0,0,1-.633-.261l-6.062-6.019a.9.9,0,0,1,0-1.272l.076-.075a.9.9,0,0,1,1.271,0l6.061,6.019a.9.9,0,0,1,0,1.271l-.074.074,0,0A.906.906,0,0,1,1426.358,1310.376Zm.373-.53h0Zm-6.358-6.607a.151.151,0,0,0-.106.044l-.074.073a.14.14,0,0,0-.04.1.144.144,0,0,0,.042.1l6.063,6.021a.147.147,0,0,0,.207,0l.072-.073a.144.144,0,0,0,0-.2l-6.063-6.021A.141.141,0,0,0,1420.373,1303.24Z" transform="translate(-1419.398 -1302.486)"/>
    </g>
    <g id="그룹_545" data-name="그룹 545" transform="translate(1250.569 1239.213)">
      <path id="패스_3607" data-name="패스 3607" d="M1480.671,1310.829l.025-.024a.619.619,0,0,0,.008-.874l-2.744-2.793a.615.615,0,0,0-.874-.008l-.025.025a.618.618,0,0,0-.008.874l2.744,2.793A.614.614,0,0,0,1480.671,1310.829Z" transform="translate(-1476.5 -1306.575)"/>
      <path id="패스_3608" data-name="패스 3608" d="M1476.616,1307.762h-.014a.979.979,0,0,1-.7-.3l-2.742-2.79a1,1,0,0,1,.012-1.407l.024-.024a.994.994,0,0,1,.7-.288h.015a.979.979,0,0,1,.7.3l2.742,2.79a1,1,0,0,1-.012,1.407l-.026.026A.992.992,0,0,1,1476.616,1307.762Zm-2.715-4.055a.243.243,0,0,0-.171.071l-.023.023a.242.242,0,0,0,0,.342l2.745,2.793a.233.233,0,0,0,.166.073h0a.242.242,0,0,0,.171-.071h0l.025-.024a.241.241,0,0,0,0-.339l-2.745-2.793a.233.233,0,0,0-.166-.073Z" transform="translate(-1472.88 -1302.952)"/>
    </g>
    <g id="그룹_546" data-name="그룹 546" transform="translate(1244.104 1242.628)">
      <path id="패스_3609" data-name="패스 3609" d="M1408.511,1343.338l-.025.025a.574.574,0,0,0,0,.812l2.552,2.543a.573.573,0,0,0,.812,0l.025-.024a.574.574,0,0,0,0-.812l-2.552-2.543A.574.574,0,0,0,1408.511,1343.338Z" transform="translate(-1407.94 -1342.792)"/>
      <path id="패스_3610" data-name="패스 3610" d="M1407.812,1343.64h0a.937.937,0,0,1-.669-.28l-2.549-2.541a.949.949,0,0,1,0-1.345l.024-.025h0a.95.95,0,0,1,.675-.279h0a.936.936,0,0,1,.668.28l2.55,2.541a.95.95,0,0,1,0,1.346l-.027.027A.947.947,0,0,1,1407.812,1343.64Zm-2.665-3.658-.024.024a.2.2,0,0,0,0,.282l2.548,2.539a.191.191,0,0,0,.136.058h0a.2.2,0,0,0,.142-.059l.027-.026a.2.2,0,0,0-.007-.28l-2.548-2.539a.191.191,0,0,0-.136-.057h0A.2.2,0,0,0,1405.147,1339.982Z" transform="translate(-1404.31 -1339.169)"/>
    </g>
  </g>
</svg>
