<svg id="그룹_499" data-name="그룹 499" xmlns="http://www.w3.org/2000/svg" width="51.428" height="49.722" viewBox="0 0 51.428 49.722">
  <g id="그룹_404" data-name="그룹 404" transform="translate(0 17.412)">
    <path id="패스_891" data-name="패스 891" d="M501.8-61.207H456.113A2.883,2.883,0,0,1,453.287-64V-90.725a2.758,2.758,0,0,1,2.826-2.792H501.7a2.818,2.818,0,0,1,2.826,2.792V-64A2.682,2.682,0,0,1,501.8-61.207ZM456.113-91.377a.64.64,0,0,0-.66.652V-64a.64.64,0,0,0,.66.652H501.7a.64.64,0,0,0,.658-.652V-90.725a.64.64,0,0,0-.658-.652Z" transform="translate(-453.287 93.517)"/>
  </g>
  <g id="그룹_405" data-name="그룹 405" transform="translate(10.676 9.869)">
    <path id="패스_892" data-name="패스 892" d="M487.811-87.618H459.742a1.167,1.167,0,0,1-.943-.464,1.275,1.275,0,0,1-.094-1.024L462-96.65a1.164,1.164,0,0,1,1.036-.652h21.476a1.164,1.164,0,0,1,1.036.652l3.3,7.45a.835.835,0,0,1,.094.466A1.137,1.137,0,0,1,487.811-87.618Zm-26.375-2.234h24.772l-2.354-5.4H463.792Z" transform="translate(-458.644 97.302)"/>
  </g>
  <g id="그룹_406" data-name="그룹 406" transform="translate(3.296 14.06)">
    <path id="패스_893" data-name="패스 893" d="M460.687-89.706h-4.616a1.138,1.138,0,0,1-1.13-1.116v-3.26a1.139,1.139,0,0,1,1.13-1.116h4.616a1.137,1.137,0,0,1,1.13,1.116v3.26A1.29,1.29,0,0,1,460.687-89.706ZM457.2-91.941h2.354v-1.118H457.2Z" transform="translate(-454.941 95.199)"/>
  </g>
  <g id="그룹_407" data-name="그룹 407" transform="translate(38.241 14.06)">
    <path id="패스_894" data-name="패스 894" d="M481.236-89.706h-7.629a1.139,1.139,0,0,1-1.132-1.116v-3.26a1.139,1.139,0,0,1,1.132-1.116h7.629a1.138,1.138,0,0,1,1.13,1.116v3.26A1.291,1.291,0,0,1,481.236-89.706Zm-6.595-2.234H480.1v-1.118h-5.463Z" transform="translate(-472.475 95.199)"/>
  </g>
  <g id="그룹_408" data-name="그룹 408" transform="translate(24.679)">
    <path id="패스_895" data-name="패스 895" d="M466.8-95.177a1.139,1.139,0,0,1-1.13-1.118v-4.841a1.138,1.138,0,0,1,1.13-1.118,1.14,1.14,0,0,1,1.13,1.118V-96.2A1.065,1.065,0,0,1,466.8-95.177Z" transform="translate(-465.67 102.254)"/>
  </g>
  <g id="그룹_409" data-name="그룹 409" transform="translate(29.349 0.987)">
    <path id="패스_896" data-name="패스 896" d="M469.089-95.3a1.347,1.347,0,0,1-.566-.187,1.159,1.159,0,0,1-.377-1.489l2.732-4.283a1.188,1.188,0,0,1,1.507-.373,1.159,1.159,0,0,1,.377,1.489l-2.732,4.283A1.288,1.288,0,0,1,469.089-95.3Z" transform="translate(-468.013 101.759)"/>
  </g>
  <g id="그룹_410" data-name="그룹 410" transform="translate(17.459 1.058)">
    <path id="패스_897" data-name="패스 897" d="M465.781-95.331a1.161,1.161,0,0,1-.941-.466L462.2-100.08a1.072,1.072,0,0,1,.377-1.491,1.076,1.076,0,0,1,1.507.373l2.637,4.283a1.071,1.071,0,0,1-.375,1.491C466.158-95.425,465.97-95.331,465.781-95.331Z" transform="translate(-462.048 101.723)"/>
  </g>
  <g id="그룹_411" data-name="그룹 411" transform="translate(19.686 13.036)">
    <path id="패스_898" data-name="패스 898" d="M474.09-89.2h-9.8a1.138,1.138,0,0,1-1.13-1.116V-94.6a1.137,1.137,0,0,1,1.13-1.116h9.8a1.137,1.137,0,0,1,1.13,1.116v4.285A1.29,1.29,0,0,1,474.09-89.2Zm-8.759-2.234h7.629v-2.142h-7.629v2.142Z" transform="translate(-463.165 95.713)"/>
  </g>
  <g id="그룹_412" data-name="그룹 412" transform="translate(33.401 25.978)">
    <path id="패스_899" data-name="패스 899" d="M486.944-74.134H471.12a1.041,1.041,0,0,1-.943-.56.966.966,0,0,1,.1-1.116,9.406,9.406,0,0,0,1.977-5.867,9.6,9.6,0,0,0-1.977-5.865.983.983,0,0,1-.1-1.118,1.039,1.039,0,0,1,.943-.558h15.824a1.14,1.14,0,0,1,1.13,1.118v12.942A1.2,1.2,0,0,1,486.944-74.134ZM473.1-76.277h12.715v-10.8H473.1a11.753,11.753,0,0,1,1.317,5.4A13.057,13.057,0,0,1,473.1-76.277Z" transform="translate(-470.047 89.219)"/>
  </g>
  <g id="그룹_413" data-name="그룹 413" transform="translate(0 25.978)">
    <path id="패스_900" data-name="패스 900" d="M470.241-74.134H454.417a1.14,1.14,0,0,1-1.13-1.118V-88.1a1.138,1.138,0,0,1,1.13-1.118h15.824a1.039,1.039,0,0,1,.943.558.969.969,0,0,1-.1,1.118,9.4,9.4,0,0,0-1.977,5.865,9.6,9.6,0,0,0,1.977,5.867.98.98,0,0,1,.1,1.116C471.088-74.322,470.713-74.134,470.241-74.134Zm-14.692-2.142h12.715a11.757,11.757,0,0,1-1.319-5.4,12.051,12.051,0,0,1,1.319-5.4H455.549Z" transform="translate(-453.287 89.219)"/>
  </g>
  <g id="그룹_414" data-name="그룹 414" transform="translate(13.751 21.789)">
    <path id="패스_901" data-name="패스 901" d="M472.151-67.673a12.09,12.09,0,0,1-9.608-4.747,11.449,11.449,0,0,1-2.356-7.077,11.85,11.85,0,0,1,2.356-7.077,11.957,11.957,0,0,1,9.608-4.747,11.955,11.955,0,0,1,9.606,4.747,11.436,11.436,0,0,1,2.356,7.077,11.849,11.849,0,0,1-2.356,7.077A12.089,12.089,0,0,1,472.151-67.673Zm0-21.6a9.631,9.631,0,0,0-7.818,3.912,9.391,9.391,0,0,0-1.979,5.865,9.581,9.581,0,0,0,1.979,5.865,9.631,9.631,0,0,0,7.818,3.912,9.63,9.63,0,0,0,7.816-3.912,9.391,9.391,0,0,0,1.979-5.865,9.581,9.581,0,0,0-1.979-5.865A9.63,9.63,0,0,0,472.151-89.274Z" transform="translate(-460.187 91.321)"/>
  </g>
  <g id="그룹_415" data-name="그룹 415" transform="translate(19.12 27.002)">
    <path id="패스_902" data-name="패스 902" d="M469.476-75.669a6.635,6.635,0,0,1-5.275-2.607,6.54,6.54,0,0,1-1.319-3.912A6.534,6.534,0,0,1,464.2-86.1a6.5,6.5,0,0,1,5.275-2.607,6.628,6.628,0,0,1,5.273,2.607,6.52,6.52,0,0,1,1.319,3.91,6.526,6.526,0,0,1-1.319,3.912A6.634,6.634,0,0,1,469.476-75.669Zm0-10.8a4.3,4.3,0,0,0-3.486,1.77,4.316,4.316,0,0,0-.847,2.607,4.316,4.316,0,0,0,.847,2.607,4.3,4.3,0,0,0,3.486,1.77,4.3,4.3,0,0,0,3.484-1.77,4.318,4.318,0,0,0,.849-2.607,4.318,4.318,0,0,0-.849-2.607A4.3,4.3,0,0,0,469.476-86.471Z" transform="translate(-462.881 88.705)"/>
  </g>
</svg>
