<svg id="_41_Heart_love_valentine" data-name="41, Heart, love, valentine" xmlns="http://www.w3.org/2000/svg" width="43.608" height="49.722" viewBox="0 0 43.608 49.722">
  <g id="그룹_417" data-name="그룹 417" transform="translate(0 0)">
    <path id="패스_903" data-name="패스 903" d="M251.037-84.014a1.094,1.094,0,0,0,1.075-1.074V-90.54a1.094,1.094,0,0,0-1.075-1.074,1.094,1.094,0,0,0-1.073,1.074v5.452A1.155,1.155,0,0,0,251.037-84.014Z" transform="translate(-229.234 91.613)"/>
    <path id="패스_904" data-name="패스 904" d="M261.851-79.295l4.624-2.644a1.056,1.056,0,0,0,.413-1.4,1.059,1.059,0,0,0-1.4-.413l-4.626,2.644a1.06,1.06,0,0,0-.413,1.4A1.06,1.06,0,0,0,261.851-79.295Z" transform="translate(-223.61 95.814)"/>
    <path id="패스_905" data-name="패스 905" d="M266.5-67.324l-4.624-2.809a.967.967,0,0,0-1.405.33A.968.968,0,0,0,260.8-68.4l4.624,2.807a.968.968,0,0,0,1.405-.33A.994.994,0,0,0,266.5-67.324Z" transform="translate(-223.631 103.17)"/>
    <path id="패스_906" data-name="패스 906" d="M251.037-64.3a1.1,1.1,0,0,0-1.073,1.074v5.451a1.094,1.094,0,0,0,1.073,1.075,1.094,1.094,0,0,0,1.075-1.075v-5.451A1.1,1.1,0,0,0,251.037-64.3Z" transform="translate(-229.234 106.426)"/>
    <path id="패스_907" data-name="패스 907" d="M241.807-70.132l-4.624,2.809a.981.981,0,0,0-.332,1.4.983.983,0,0,0,1.405.33l4.624-2.807a.983.983,0,0,0,.332-1.405A.982.982,0,0,0,241.807-70.132Z" transform="translate(-236.44 103.17)"/>
    <path id="패스_908" data-name="패스 908" d="M242.807-81.112l-4.626-2.644a1.059,1.059,0,0,0-1.4.413,1.056,1.056,0,0,0,.413,1.4l4.624,2.644a1.06,1.06,0,0,0,1.405-.413A.99.99,0,0,0,242.807-81.112Z" transform="translate(-236.448 95.814)"/>
    <path id="패스_909" data-name="패스 909" d="M256.651-82.786a.964.964,0,0,0,.908-.578l1.652-3.055a1.056,1.056,0,0,0-.413-1.4,1.058,1.058,0,0,0-1.4.412l-1.652,3.057A1.055,1.055,0,0,0,256.651-82.786Z" transform="translate(-226.175 93.606)"/>
    <path id="패스_910" data-name="패스 910" d="M265.611-76.137h-3.221a1.093,1.093,0,0,0-1.074,1.074,1.093,1.093,0,0,0,1.074,1.074h3.221a1.093,1.093,0,0,0,1.073-1.074A1.093,1.093,0,0,0,265.611-76.137Z" transform="translate(-223.077 100.007)"/>
    <path id="패스_911" data-name="패스 911" d="M257.551-65.832a1.057,1.057,0,0,0-1.4-.412,1.058,1.058,0,0,0-.413,1.4l1.652,2.809a1.06,1.06,0,0,0,1.4.413,1.057,1.057,0,0,0,.413-1.4Z" transform="translate(-226.166 105.311)"/>
    <path id="패스_912" data-name="패스 912" d="M246.606-66.224a.966.966,0,0,0-1.4.33l-1.818,2.809a.966.966,0,0,0,.332,1.4.967.967,0,0,0,1.4-.33l1.817-2.809A1.071,1.071,0,0,0,246.606-66.224Z" transform="translate(-232.896 105.291)"/>
    <path id="패스_913" data-name="패스 913" d="M237.6-74.042h3.22a1.094,1.094,0,0,0,1.074-1.075,1.094,1.094,0,0,0-1.074-1.074H237.6a1.094,1.094,0,0,0-1.073,1.074A1.094,1.094,0,0,0,237.6-74.042Z" transform="translate(-236.524 99.978)"/>
    <path id="패스_914" data-name="패스 914" d="M245.149-83.29a.981.981,0,0,0,1.4.33.98.98,0,0,0,.33-1.4l-1.817-3.057a.982.982,0,0,0-1.4-.33.982.982,0,0,0-.33,1.405Z" transform="translate(-232.925 93.615)"/>
    <path id="패스_915" data-name="패스 915" d="M261.307-82.563a6.5,6.5,0,0,0-6.029,3.469,6.59,6.59,0,0,0-6.029-3.469,7.156,7.156,0,0,0-7.1,7.1c0,6.608,6.359,10.241,12.472,16.271a1.046,1.046,0,0,0,1.487,0c6.029-6.029,12.472-9.745,12.472-16.271A7.356,7.356,0,0,0,261.307-82.563ZM255.2-61.337c-5.7-5.533-11.068-8.838-11.068-14.124a5.005,5.005,0,0,1,5.039-5.037c2.4,0,3.634.992,5.121,3.964a1.018,1.018,0,0,0,1.817,0c1.487-2.972,2.725-3.964,5.121-3.964a5,5,0,0,1,5.037,5.037C266.346-70.175,260.9-66.869,255.2-61.337Z" transform="translate(-233.475 96.522)"/>
  </g>
</svg>
