<svg id="_50_Heart_Love_Like_favorite_report" data-name="50, Heart, Love, Like, favorite, report" xmlns="http://www.w3.org/2000/svg" width="55.523" height="49.722" viewBox="0 0 55.523 49.722">
  <path id="패스_890" data-name="패스 890" d="M270.676-161.912c-6.727,0-10.233,3.221-13.265,8.624-3.031-5.4-6.537-8.624-13.265-8.624a14.4,14.4,0,0,0-14.4,14.4c0,4.833,1.61,9.286,5.211,13.929,5.116,6.727,13.455,12.792,21.7,21.036a1.2,1.2,0,0,0,1.707,0c13.265-13.267,26.909-21.036,26.909-34.871A14.7,14.7,0,0,0,270.676-161.912ZM257.412-115.1c-12.885-12.6-25.3-19.994-25.3-32.407a12.052,12.052,0,0,1,12.035-12.033c5.685,0,8.717,2.369,12.223,9.286a1.169,1.169,0,0,0,2.084,0c3.506-6.917,6.537-9.286,12.223-9.286A12.131,12.131,0,0,1,282.8-147.51C282.711-135.1,270.3-127.8,257.412-115.1Z" transform="translate(-229.745 161.912)"/>
</svg>
