<svg id="그룹_237" data-name="그룹 237" xmlns="http://www.w3.org/2000/svg" width="40" height="40" viewBox="0 0 40 40">
  <path id="패스_679" data-name="패스 679" d="M465.017-309.926h32.455a3.783,3.783,0,0,1,3.772,3.772V-273.7a3.783,3.783,0,0,1-3.772,3.772H465.017a3.783,3.783,0,0,1-3.772-3.772v-32.455a3.783,3.783,0,0,1,3.772-3.772" transform="translate(-461.245 309.926)" fill="#111" fill-rule="evenodd"/>
  <path id="패스_680" data-name="패스 680" d="M497.872-279.712l-.434,3.488a1.164,1.164,0,0,1-1.153,1.022h-5.65v14.272h-5.8V-275.2h-4.347a.727.727,0,0,1-.724-.727v-4.366a.727.727,0,0,1,.724-.727h4.347v-6.547a7.261,7.261,0,0,1,7.245-7.276h5.071a.727.727,0,0,1,.724.726v4.367a.727.727,0,0,1-.724.726h-3.623a2.9,2.9,0,0,0-2.9,2.911v5.093h6.085a1.163,1.163,0,0,1,1.151,1.309" transform="translate(-472.195 300.93)" fill="#fff"/>
</svg>
