<svg xmlns="http://www.w3.org/2000/svg" width="40" height="40" viewBox="0 0 40 40">
  <g id="그룹_234" data-name="그룹 234" transform="translate(-720.892 -4424.54)">
    <path id="패스_694" data-name="패스 694" d="M100.472-314.361h32.455a3.783,3.783,0,0,1,3.772,3.772v32.455a3.783,3.783,0,0,1-3.772,3.773H100.472a3.783,3.783,0,0,1-3.772-3.773v-32.455a3.783,3.783,0,0,1,3.772-3.772" transform="translate(624.192 4738.901)" fill="#111" fill-rule="evenodd"/>
    <path id="패스_695" data-name="패스 695" d="M125.75-275.194a15.991,15.991,0,0,1-2.4-.146.421.421,0,0,0-.318.078c-1.581,1.1-3.158,2.21-4.79,3.242-.2.123-.4.235-.61.35a.635.635,0,0,1-.234.081c-.261.034-.413-.118-.357-.378.1-.451.231-.894.36-1.339.321-1.123.642-2.249.967-3.37.028-.1.02-.146-.084-.2a12.426,12.426,0,0,1-4-3.112,9.086,9.086,0,0,1-2.1-4.485,8.457,8.457,0,0,1,.978-5.479,11.146,11.146,0,0,1,3.839-4.02,15,15,0,0,1,5.577-2.151,16.764,16.764,0,0,1,4.492-.2,15.084,15.084,0,0,1,7.748,2.818,10.314,10.314,0,0,1,3.51,4.264,8.431,8.431,0,0,1-.647,8.118,11.4,11.4,0,0,1-4.137,3.88,15.2,15.2,0,0,1-5.167,1.815,16.809,16.809,0,0,1-2.626.23" transform="translate(615.316 4728.526)" fill="#fff"/>
    <path id="패스_696" data-name="패스 696" d="M159.165-275.345a.807.807,0,0,1,.094-.13q1.043-1.046,2.088-2.09a.683.683,0,0,1,.9-.112.792.792,0,0,1,.377.88.75.75,0,0,1-.2.309c-.571.572-1.139,1.143-1.713,1.708-.079.08-.077.126-.012.209q.954,1.259,1.9,2.521a.81.81,0,0,1-.085,1.122.807.807,0,0,1-1.2-.124c-.568-.745-1.131-1.493-1.7-2.241l-.041-.059c-.067-.062-.085-.189-.188-.194-.079-.006-.268.282-.268.377,0,.562.006,1.122,0,1.681a.8.8,0,0,1-.671.778.814.814,0,0,1-.878-.468.792.792,0,0,1-.076-.35c0-1.849,0-3.7,0-5.547a.811.811,0,0,1,.81-.827.812.812,0,0,1,.815.821c.006.53,0,1.063,0,1.593v.112Z" transform="translate(588.197 4717.283)"/>
    <path id="패스_697" data-name="패스 697" d="M122.263-273.841c0-.772,0-1.546,0-2.318,0-.121-.021-.167-.156-.161-.362.008-.725.005-1.087,0a.79.79,0,0,1-.827-.783.793.793,0,0,1,.821-.809q2.063-.009,4.126,0a.8.8,0,0,1,.819.706.8.8,0,0,1-.6.862.836.836,0,0,1-.241.024c-.365,0-.724.006-1.086,0-.121,0-.145.038-.145.147q.005,2.31,0,4.62a.8.8,0,0,1-.56.819.809.809,0,0,1-1.072-.775c-.006-.777,0-1.554,0-2.332" transform="translate(610.274 4717.289)"/>
    <path id="패스_698" data-name="패스 698" d="M146.863-274.337c0-.919,0-1.835,0-2.753a.818.818,0,0,1,.748-.816.834.834,0,0,1,.886.613,1.057,1.057,0,0,1,.026.3q0,2.266,0,4.532c0,.129.032.161.159.159.53-.006,1.063-.006,1.593,0a.75.75,0,0,1,.763.7.743.743,0,0,1-.713.78q-1.374.014-2.75,0a.741.741,0,0,1-.709-.754c0-.922,0-1.843,0-2.764" transform="translate(594.511 4717.289)"/>
    <path id="패스_699" data-name="패스 699" d="M132.995-272.113c.377.006.754,0,1.131,0s.744,0,1.116,0a.148.148,0,0,1,.171.124c.1.271.221.536.306.81a.666.666,0,0,0,.674.486,1.3,1.3,0,0,0,.509-.085.521.521,0,0,0,.359-.48,1.751,1.751,0,0,0-.13-.777c-.339-.9-.683-1.793-1.021-2.688-.3-.8-.6-1.6-.91-2.391a1.155,1.155,0,0,0-1.257-.76,1.192,1.192,0,0,0-.913.8q-.831,2.176-1.658,4.36a7.479,7.479,0,0,0-.365,1.051c-.121.584.077.875.648.957a.724.724,0,0,0,.88-.506c.1-.265.209-.53.3-.8a.138.138,0,0,1,.156-.106m.916-1.443c-.159,0-.318-.006-.48,0-.1.006-.118-.02-.082-.118q.314-.879.621-1.758c.047-.13.1-.262.153-.436.28.789.545,1.54.816,2.308Z" transform="translate(603.882 4717.277)" fill-rule="evenodd"/>
  </g>
</svg>
