<svg xmlns="http://www.w3.org/2000/svg" width="40" height="40" viewBox="0 0 40 40">
  <g id="그룹_236" data-name="그룹 236" transform="translate(-961.901 -4417)">
    <path id="패스_681" data-name="패스 681" d="M341.481-321.9h32.455a3.783,3.783,0,0,1,3.772,3.772v32.455a3.783,3.783,0,0,1-3.772,3.773H341.481a3.783,3.783,0,0,1-3.772-3.773v-32.455a3.784,3.784,0,0,1,3.772-3.772" transform="translate(624.192 4738.901)" fill="#111" fill-rule="evenodd"/>
    <path id="패스_682" data-name="패스 682" d="M372.273-290.237l7.947-8.456H377.2l-6.237,6.637-4.776-6.637h-8.254l8.356,11.611-8.356,8.891h3.018l6.646-7.072,5.089,7.072h8.253Zm-10.085-6.282h2.877l11.624,16.153h-2.878Z" transform="translate(612.463 4725.442)" fill="#fff"/>
  </g>
</svg>
