<svg id="그룹_238" data-name="그룹 238" xmlns="http://www.w3.org/2000/svg" width="40" height="40" viewBox="0 0 40 40">
  <path id="패스_683" data-name="패스 683" d="M601.6-309.642H634.06a3.783,3.783,0,0,1,3.772,3.772v32.455a3.783,3.783,0,0,1-3.772,3.773H601.6a3.783,3.783,0,0,1-3.772-3.773V-305.87a3.783,3.783,0,0,1,3.772-3.772" transform="translate(-597.832 309.642)" fill="#111" fill-rule="evenodd"/>
  <path id="패스_685" data-name="패스 685" d="M634.605-292.569H621.173A6.269,6.269,0,0,0,614.9-286.3v13.433a6.271,6.271,0,0,0,6.269,6.269h13.433a6.271,6.271,0,0,0,6.269-6.269V-286.3a6.269,6.269,0,0,0-6.269-6.267m4.03,19.253a4.48,4.48,0,0,1-4.477,4.477H621.621a4.48,4.48,0,0,1-4.478-4.477v-12.538a4.479,4.479,0,0,1,4.478-4.477h12.537a4.479,4.479,0,0,1,4.477,4.477Z" transform="translate(-607.889 299.584)" fill="#fff"/>
  <path id="패스_686" data-name="패스 686" d="M637-277.252a6.748,6.748,0,0,0-6.745,6.746A6.746,6.746,0,0,0,637-263.762a6.747,6.747,0,0,0,6.745-6.744A6.749,6.749,0,0,0,637-277.252m0,11.242a4.5,4.5,0,0,1-4.5-4.5A4.5,4.5,0,0,1,637-275a4.5,4.5,0,0,1,4.5,4.5A4.5,4.5,0,0,1,637-266.01Z" transform="translate(-616.99 290.506)" fill="#fff"/>
  <path id="패스_687" data-name="패스 687" d="M662.248-278.929a1.351,1.351,0,0,1-1.349-1.349,1.35,1.35,0,0,1,1.349-1.349,1.35,1.35,0,0,1,1.349,1.349,1.351,1.351,0,0,1-1.349,1.349" transform="translate(-635.061 293.104)" fill="#fff"/>
</svg>
