<svg xmlns="http://www.w3.org/2000/svg" width="40" height="40" viewBox="0 0 40 40">
  <g id="그룹_235" data-name="그룹 235" transform="translate(-838.81 -4424.54)">
    <path id="패스_688" data-name="패스 688" d="M218.39-314.361h32.455a3.783,3.783,0,0,1,3.772,3.772v32.455a3.784,3.784,0,0,1-3.772,3.773H218.39a3.783,3.783,0,0,1-3.772-3.773v-32.455a3.783,3.783,0,0,1,3.772-3.772" transform="translate(624.192 4738.901)" fill="#111" fill-rule="evenodd"/>
    <path id="패스_689" data-name="패스 689" d="M257.237-285.511c0-5.726-5.753-10.385-12.828-10.385s-12.829,4.659-12.829,10.385c0,5.134,4.565,9.433,10.729,10.246.418.09.987.274,1.13.631a2.571,2.571,0,0,1,.041,1.157s-.15.9-.181,1.1c-.055.323-.259,1.265,1.111.69s7.387-4.339,10.078-7.43a9.222,9.222,0,0,0,2.75-6.39" transform="translate(614.401 4728.242)" fill="#fff"/>
    <path id="패스_690" data-name="패스 690" d="M255.306-276.938h-.942a.262.262,0,0,0-.263.262v5.866a.262.262,0,0,0,.263.262h.942a.262.262,0,0,0,.264-.262v-5.866a.262.262,0,0,0-.264-.262" transform="translate(600.869 4716.724)"/>
    <path id="패스_691" data-name="패스 691" d="M265.066-276.938h-.942a.262.262,0,0,0-.264.262v3.485l-2.687-3.63-.02-.027,0,0-.015-.016-.005,0-.015-.011-.006-.005-.015-.009-.006,0-.014-.008-.008,0-.015-.006-.008,0-.015-.005-.011,0-.015,0h-.012l-.011,0h-.969a.262.262,0,0,0-.261.262v5.866a.262.262,0,0,0,.261.262h.946a.262.262,0,0,0,.263-.262v-3.484l2.689,3.635.068.064,0,0,.014.009.009,0,.012.005.014.006.006,0,.017.006h.006l.068.009h.942a.262.262,0,0,0,.263-.262v-5.866a.262.262,0,0,0-.263-.262" transform="translate(597.463 4716.724)"/>
    <path id="패스_692" data-name="패스 692" d="M246.063-272.018H243.5v-4.659a.262.262,0,0,0-.264-.262h-.942a.262.262,0,0,0-.263.262v5.866a.265.265,0,0,0,.073.181l0,0,.006,0a.258.258,0,0,0,.181.073h3.773a.262.262,0,0,0,.261-.262v-.945a.262.262,0,0,0-.261-.262" transform="translate(607.973 4716.725)"/>
    <path id="패스_693" data-name="패스 693" d="M279.158-275.469a.262.262,0,0,0,.263-.263v-.944a.262.262,0,0,0-.263-.262h-3.772a.261.261,0,0,0-.182.073l0,0-.006.005a.262.262,0,0,0-.07.181v5.866a.254.254,0,0,0,.073.181l0,0,0,0a.259.259,0,0,0,.182.073h3.772a.262.262,0,0,0,.263-.262v-.945a.262.262,0,0,0-.263-.261h-2.564v-.992h2.564a.262.262,0,0,0,.263-.262v-.944a.262.262,0,0,0-.263-.262h-2.564v-.991Z" transform="translate(588.387 4716.724)"/>
  </g>
</svg>
