<svg id="그룹_239" data-name="그룹 239" xmlns="http://www.w3.org/2000/svg" width="40" height="40" viewBox="0 0 40 40">
  <path id="패스_684" data-name="패스 684" d="M743.166-309.642h32.455a3.783,3.783,0,0,1,3.772,3.772v32.455a3.783,3.783,0,0,1-3.772,3.773H743.166a3.783,3.783,0,0,1-3.772-3.773V-305.87a3.783,3.783,0,0,1,3.772-3.772" transform="translate(-739.394 309.642)" fill="#111" fill-rule="evenodd"/>
  <g id="그룹_233" data-name="그룹 233" transform="translate(5.039 7.191)">
    <path id="패스_700" data-name="패스 700" d="M790.886-268.116a1.252,1.252,0,0,0-1.252,1.252,1.252,1.252,0,0,0,1.252,1.251,1.252,1.252,0,0,0,1.251-1.251A1.251,1.251,0,0,0,790.886-268.116Z" transform="translate(-774.092 277.933)" fill="#fff"/>
    <path id="패스_701" data-name="패스 701" d="M807.7-267.888a1.158,1.158,0,0,0-1.158,1.158,1.159,1.159,0,0,0,1.158,1.158,1.159,1.159,0,0,0,1.158-1.158A1.158,1.158,0,0,0,807.7-267.888Z" transform="translate(-784.079 277.799)" fill="#fff"/>
    <path id="패스_702" data-name="패스 702" d="M776.373-292.007h-19.51a5.214,5.214,0,0,0-5.2,5.225v10.142a5.215,5.215,0,0,0,5.2,5.225H764.2l2.42,4.793,2.743-4.793h7.013a5.216,5.216,0,0,0,5.207-5.225v-10.142A5.216,5.216,0,0,0,776.373-292.007ZM758.12-278.132a2.84,2.84,0,0,1-1.453-.4v.361h-1.952v-7.949h1.952v2.627a2.848,2.848,0,0,1,1.453-.4,2.875,2.875,0,0,1,2.87,2.881A2.875,2.875,0,0,1,758.12-278.132Zm6.084-5.3v5.3H762.33v-5.3c0-1.152-.727-1.152-.727-1.152v-1.536a2.347,2.347,0,0,1,2.5,1.92,3.4,3.4,0,0,1,.1.758Zm4.249,5.536a3.038,3.038,0,0,1-3.033-3.042,3.037,3.037,0,0,1,3.033-3.042,3.036,3.036,0,0,1,3.031,3.042A3.037,3.037,0,0,1,768.453-277.9Zm6.544,2.5v-1.535s1.7.2,1.7-.768v-.814a2.78,2.78,0,0,1-1.417.389,2.811,2.811,0,0,1-2.805-2.816,2.811,2.811,0,0,1,2.805-2.814,2.772,2.772,0,0,1,1.417.388v-.247h1.814v5.915S778.906-275.394,775-275.394Z" transform="translate(-751.658 292.007)" fill="#fff"/>
    <path id="패스_703" data-name="패스 703" d="M765.249-268.1a1.172,1.172,0,0,0-1.173,1.171,1.173,1.173,0,0,0,1.173,1.171,1.171,1.171,0,0,0,1.17-1.171A1.17,1.17,0,0,0,765.249-268.1Z" transform="translate(-758.994 277.924)" fill="#fff"/>
  </g>
</svg>
