<svg id="그룹_493" data-name="그룹 493" xmlns="http://www.w3.org/2000/svg" width="61.756" height="61.771" viewBox="0 0 61.756 61.771">
  <g id="그룹_475" data-name="그룹 475" transform="translate(0 29.806)">
    <path id="패스_3526" data-name="패스 3526" d="M-205.017,62.176c-9.771,0-17.139-3.636-17.139-8.457a1.5,1.5,0,0,1,1.5-1.5,1.5,1.5,0,0,1,1.5,1.5c0,2.577,6.048,5.46,14.142,5.46a30.69,30.69,0,0,0,7.041-.787,1.5,1.5,0,0,1,1.807,1.107,1.5,1.5,0,0,1-1.107,1.807A33.744,33.744,0,0,1-205.017,62.176Z" transform="translate(222.156 -52.22)"/>
  </g>
  <g id="그룹_476" data-name="그룹 476" transform="translate(0 37.387)">
    <path id="패스_3527" data-name="패스 3527" d="M-205.017,74.821c-9.771,0-17.139-3.636-17.139-8.456a1.5,1.5,0,0,1,1.5-1.5,1.5,1.5,0,0,1,1.5,1.5c0,2.577,6.048,5.459,14.142,5.459a30.747,30.747,0,0,0,7.022-.781,1.5,1.5,0,0,1,1.806,1.11,1.5,1.5,0,0,1-1.11,1.806A33.805,33.805,0,0,1-205.017,74.821Z" transform="translate(222.156 -64.866)"/>
  </g>
  <g id="그룹_477" data-name="그룹 477" transform="translate(0 44.964)">
    <path id="패스_3528" data-name="패스 3528" d="M-205.017,87.462c-9.771,0-17.139-3.636-17.139-8.457a1.5,1.5,0,0,1,1.5-1.5,1.5,1.5,0,0,1,1.5,1.5c0,2.577,6.048,5.46,14.142,5.46a30.867,30.867,0,0,0,7.049-.784,1.5,1.5,0,0,1,1.806,1.11,1.5,1.5,0,0,1-1.11,1.806A33.924,33.924,0,0,1-205.017,87.462Z" transform="translate(222.156 -77.506)"/>
  </g>
  <g id="그룹_478" data-name="그룹 478" transform="translate(0 0)">
    <path id="패스_3529" data-name="패스 3529" d="M-205.017,19.417c-9.771,0-17.139-3.637-17.139-8.46S-214.788,2.5-205.017,2.5s17.137,3.636,17.137,8.457S-195.248,19.417-205.017,19.417Zm0-13.92c-8.094,0-14.142,2.883-14.142,5.46s6.048,5.462,14.142,5.462,14.139-2.884,14.139-5.462S-196.925,5.5-205.017,5.5Z" transform="translate(222.156 -2.5)"/>
  </g>
  <g id="그룹_482" data-name="그룹 482" transform="translate(7.96 4.481)">
    <g id="그룹_479" data-name="그룹 479" transform="translate(1.958)">
      <path id="패스_3530" data-name="패스 3530" d="M-194.107,17.928a1.5,1.5,0,0,1-1.3-.758,1.5,1.5,0,0,1,.562-2.044,1.323,1.323,0,0,0,.711-.924.852.852,0,0,0-.2-.673,1.651,1.651,0,0,0-1.179-.544c-1.444-.1-1.758.321-1.915,1.3a3.874,3.874,0,0,1-4.477,3.388,4.1,4.1,0,0,1-2.908-1.451,3.436,3.436,0,0,1-.758-2.657,3.8,3.8,0,0,1,1.94-2.777,1.5,1.5,0,0,1,2.045.556,1.5,1.5,0,0,1-.556,2.045.855.855,0,0,0-.46.574.448.448,0,0,0,.111.366,1.12,1.12,0,0,0,.788.354c1.081.073,1.223-.3,1.313-.869.246-1.539,1.228-4.078,5.079-3.817a4.65,4.65,0,0,1,3.3,1.641,3.845,3.845,0,0,1,.849,2.97,4.285,4.285,0,0,1-2.2,3.127A1.5,1.5,0,0,1-194.107,17.928Z" transform="translate(205.61 -9.975)"/>
    </g>
    <g id="그룹_480" data-name="그룹 480" transform="translate(0 2.478)">
      <path id="패스_3531" data-name="패스 3531" d="M-205.486,17.105h-1.893a1.5,1.5,0,0,1-1.5-1.5,1.5,1.5,0,0,1,1.5-1.5h1.893a1.5,1.5,0,0,1,1.5,1.5A1.5,1.5,0,0,1-205.486,17.105Z" transform="translate(208.877 -14.108)"/>
    </g>
    <g id="그룹_481" data-name="그룹 481" transform="translate(13.465 2.478)">
      <path id="패스_3532" data-name="패스 3532" d="M-183.025,17.105h-1.893a1.5,1.5,0,0,1-1.5-1.5,1.5,1.5,0,0,1,1.5-1.5h1.893a1.5,1.5,0,0,1,1.5,1.5A1.5,1.5,0,0,1-183.025,17.105Z" transform="translate(186.416 -14.108)"/>
    </g>
  </g>
  <g id="그룹_486" data-name="그룹 486" transform="translate(35.442 26.601)">
    <g id="그룹_483" data-name="그룹 483" transform="translate(1.955)">
      <path id="패스_3533" data-name="패스 3533" d="M-148.268,54.825a1.5,1.5,0,0,1-1.3-.756,1.5,1.5,0,0,1,.558-2.045,1.324,1.324,0,0,0,.713-.923.86.86,0,0,0-.205-.678,1.643,1.643,0,0,0-1.174-.54c-1.452-.1-1.763.32-1.919,1.3a3.881,3.881,0,0,1-4.475,3.387,4.1,4.1,0,0,1-2.906-1.447,3.447,3.447,0,0,1-.766-2.657,3.825,3.825,0,0,1,1.945-2.78,1.5,1.5,0,0,1,2.045.555,1.5,1.5,0,0,1-.555,2.045.872.872,0,0,0-.466.583.449.449,0,0,0,.116.355,1.124,1.124,0,0,0,.79.354c1.077.074,1.22-.3,1.312-.87.245-1.537,1.241-4.072,5.082-3.814a4.638,4.638,0,0,1,3.292,1.634,3.849,3.849,0,0,1,.855,2.973,4.286,4.286,0,0,1-2.2,3.128A1.5,1.5,0,0,1-148.268,54.825Z" transform="translate(159.775 -46.873)"/>
    </g>
    <g id="그룹_484" data-name="그룹 484" transform="translate(0 2.475)">
      <path id="패스_3534" data-name="패스 3534" d="M-159.644,54h-1.892a1.5,1.5,0,0,1-1.5-1.5,1.5,1.5,0,0,1,1.5-1.5h1.892a1.5,1.5,0,0,1,1.5,1.5A1.5,1.5,0,0,1-159.644,54Z" transform="translate(163.035 -51.002)"/>
    </g>
    <g id="그룹_485" data-name="그룹 485" transform="translate(13.465 2.475)">
      <path id="패스_3535" data-name="패스 3535" d="M-137.182,54h-1.892a1.5,1.5,0,0,1-1.5-1.5,1.5,1.5,0,0,1,1.5-1.5h1.892a1.5,1.5,0,0,1,1.5,1.5A1.5,1.5,0,0,1-137.182,54Z" transform="translate(140.573 -51.002)"/>
    </g>
  </g>
  <g id="그룹_487" data-name="그룹 487" transform="translate(0 14.54)">
    <path id="패스_3536" data-name="패스 3536" d="M-205.017,36.711c-9.771,0-17.139-3.636-17.139-8.459a1.5,1.5,0,0,1,1.5-1.5,1.5,1.5,0,0,1,1.5,1.5c0,2.578,6.048,5.461,14.142,5.461s14.139-2.883,14.139-5.461a1.5,1.5,0,0,1,1.5-1.5,1.5,1.5,0,0,1,1.5,1.5C-187.88,33.075-195.248,36.711-205.017,36.711Z" transform="translate(222.156 -26.754)"/>
  </g>
  <g id="그룹_488" data-name="그룹 488" transform="translate(0 22.12)">
    <path id="패스_3537" data-name="패스 3537" d="M-205.017,49.354c-9.771,0-17.139-3.636-17.139-8.457a1.5,1.5,0,0,1,1.5-1.5,1.5,1.5,0,0,1,1.5,1.5c0,2.578,6.048,5.46,14.142,5.46a30.887,30.887,0,0,0,7.05-.785,1.5,1.5,0,0,1,1.806,1.11,1.5,1.5,0,0,1-1.11,1.806A33.907,33.907,0,0,1-205.017,49.354Z" transform="translate(222.156 -39.398)"/>
  </g>
  <g id="그룹_489" data-name="그룹 489" transform="translate(27.481 22.118)">
    <path id="패스_3538" data-name="패스 3538" d="M-159.176,56.31c-9.77,0-17.138-3.635-17.138-8.455s7.368-8.459,17.138-8.459,17.137,3.636,17.137,8.459S-149.406,56.31-159.176,56.31Zm0-13.916c-8.094,0-14.14,2.883-14.14,5.461s6.047,5.458,14.14,5.458,14.14-2.881,14.14-5.458S-151.083,42.393-159.176,42.393Z" transform="translate(176.314 -39.396)"/>
  </g>
  <g id="그룹_490" data-name="그룹 490" transform="translate(27.481 36.656)">
    <path id="패스_3539" data-name="패스 3539" d="M-159.176,73.6c-9.77,0-17.138-3.636-17.138-8.457a1.5,1.5,0,0,1,1.5-1.5,1.5,1.5,0,0,1,1.5,1.5c0,2.578,6.047,5.46,14.14,5.46s14.14-2.882,14.14-5.46a1.5,1.5,0,0,1,1.5-1.5,1.5,1.5,0,0,1,1.5,1.5C-142.039,69.966-149.406,73.6-159.176,73.6Z" transform="translate(176.314 -63.646)"/>
  </g>
  <g id="그룹_491" data-name="그룹 491" transform="translate(27.481 44.238)">
    <path id="패스_3540" data-name="패스 3540" d="M-159.176,86.248c-9.77,0-17.138-3.635-17.138-8.455a1.5,1.5,0,0,1,1.5-1.5,1.5,1.5,0,0,1,1.5,1.5c0,2.577,6.047,5.458,14.14,5.458s14.14-2.881,14.14-5.458a1.5,1.5,0,0,1,1.5-1.5,1.5,1.5,0,0,1,1.5,1.5C-142.039,82.613-149.406,86.248-159.176,86.248Z" transform="translate(176.314 -76.294)"/>
  </g>
  <g id="그룹_492" data-name="그룹 492" transform="translate(27.481 51.817)">
    <path id="패스_3541" data-name="패스 3541" d="M-159.176,98.891c-9.77,0-17.138-3.635-17.138-8.455a1.5,1.5,0,0,1,1.5-1.5,1.5,1.5,0,0,1,1.5,1.5c0,2.576,6.047,5.458,14.14,5.458s14.14-2.882,14.14-5.458a1.5,1.5,0,0,1,1.5-1.5,1.5,1.5,0,0,1,1.5,1.5C-142.039,95.255-149.406,98.891-159.176,98.891Z" transform="translate(176.314 -88.937)"/>
  </g>
</svg>
