<svg xmlns="http://www.w3.org/2000/svg" width="58.069" height="66.013" viewBox="0 0 58.069 66.013">
  <g id="그룹_498" data-name="그룹 498" transform="translate(990.699 -98.181)">
    <path id="패스_3550" data-name="패스 3550" d="M-969.287,163.038c-.667-.186-.784-1.045-.853-1.985-.054-.745-.066-1.731-.036-2.938l-12.5-2.38.468-1.861,12.45-2.4c.583-6.353,1.664-13.705,3.066-20.854l-23.511-4.478.63-2.508,8.037-1.549.584-2.326a2.353,2.353,0,0,1,2.886-1.768,2.363,2.363,0,0,1,1.436,1.156,2.591,2.591,0,0,1,.241,1.887l-.016.063,1.9-.365.285-1.135a2.353,2.353,0,0,1,2.885-1.769,2.364,2.364,0,0,1,1.436,1.156,2.59,2.59,0,0,1,.283.806l5.6-1.079c2.033-7.977,4.152-13.662,6.3-16.9,2.11-3.183,3.815-3.27,4.643-3.039a2.764,2.764,0,0,1,1.625,1.4,8.946,8.946,0,0,1,.939,3.672c.316,3.946-.543,10.04-2.552,18.116l4.326,3.791a2.4,2.4,0,0,1,.7-.656,2.242,2.242,0,0,1,1.791-.254,2.508,2.508,0,0,1,1.677,3.044l-.313,1.245,1.478,1.3.041-.162a2.461,2.461,0,0,1,1.1-1.514,2.237,2.237,0,0,1,1.79-.254,2.508,2.508,0,0,1,1.677,3.043l-.6,2.394,6.268,5.493-.625,2.488-22.532-8.391a207.867,207.867,0,0,1-7.176,19.782l9.741,8.536-.465,1.854-12.006-4.471c-.542,1.065-1.018,1.917-1.418,2.536C-968.114,162.54-968.621,163.224-969.287,163.038Zm.562-6.157-.023.644c-.059,1.66-.036,2.7.008,3.342a32.446,32.446,0,0,0,1.585-2.9l.283-.57,10.211,3.8-8.529-7.474.223-.517a205.688,205.688,0,0,0,7.563-20.865l.222-.728,22.457,8.363,0-.014-6.268-5.493.832-3.312a1.01,1.01,0,0,0-.676-1.226.9.9,0,0,0-.72.1.992.992,0,0,0-.442.61l-.606,2.412-3.868-3.389.543-2.163a1.011,1.011,0,0,0-.675-1.226.9.9,0,0,0-.722.1.992.992,0,0,0-.441.61l-.317,1.263-6.57-5.757.141-.559c2.032-8.089,2.906-14.135,2.6-17.97-.253-3.165-1.229-3.678-1.521-3.76s-1.4-.152-3.128,2.453c-2.092,3.157-4.18,8.839-6.206,16.887l-.115.456-8.423,1.623.284-1.132a1.048,1.048,0,0,0-.1-.764.952.952,0,0,0-.578-.465.948.948,0,0,0-1.162.713l-.514,2.046-4.959.956.584-2.326a1.044,1.044,0,0,0-.1-.76.951.951,0,0,0-.578-.466.948.948,0,0,0-1.163.712l-.813,3.238-8.037,1.548-.01.039,23.435,4.463-.149.748a210.937,210.937,0,0,0-3.24,21.995l-.049.561-10.959,2.112Z" transform="translate(0)" stroke="#000" stroke-linecap="round" stroke-linejoin="round" stroke-width="1"/>
  </g>
</svg>
