<svg id="그룹_495" data-name="그룹 495" xmlns="http://www.w3.org/2000/svg" width="67.311" height="65" viewBox="0 0 67.311 65">
  <g id="_336_Chat_conversation_messages_bubble" data-name="336, Chat, conversation, messages, bubble" transform="translate(0 0)">
    <g id="그룹_494" data-name="그룹 494">
      <path id="패스_3543" data-name="패스 3543" d="M-52.421,148.906h-50.032a4.651,4.651,0,0,0-4.631,4.63v23.6h-4.4a3.639,3.639,0,0,0-3.614,3.614V204.7a3.7,3.7,0,0,0,3.5,3.614l-.678,3.953a1.392,1.392,0,0,0,2.033,1.469l10.165-5.535h21.8a3.638,3.638,0,0,0,3.614-3.614v-10.5h5.082l15.472,8.358c.339.226.678.226.678.113a1.5,1.5,0,0,0,1.469-1.469c0-.112.113.453-1.129-7.114h.678a4.652,4.652,0,0,0,4.63-4.631V153.649A4.749,4.749,0,0,0-52.421,148.906ZM-77.494,204.7a.771.771,0,0,1-.79.79h-22.137c-.225,0-.451.113-.678.113L-109,209.893l.451-2.824a1.471,1.471,0,0,0-1.355-1.694h-1.581a.773.773,0,0,1-.791-.791V180.754a.772.772,0,0,1,.791-.79h4.4v9.487a4.651,4.651,0,0,0,4.631,4.63h24.959Zm26.88-15.247a1.784,1.784,0,0,1-1.807,1.807h-2.485a1.356,1.356,0,0,0-1.355,1.694l.9,5.648-13.1-7.117a1.441,1.441,0,0,0-.678-.112h-33.2a1.784,1.784,0,0,1-1.808-1.807V153.649a1.784,1.784,0,0,1,1.808-1.807h50.032a1.784,1.784,0,0,1,1.807,1.807l-.113,35.8Z" transform="translate(115.102 -148.906)"/>
      <path id="패스_3544" data-name="패스 3544" d="M-70.987,165.34a4.29,4.29,0,0,0-4.291,4.291,4.29,4.29,0,0,0,4.291,4.291,4.2,4.2,0,0,0,4.179-4.291A4.2,4.2,0,0,0-70.987,165.34Zm0,5.647a1.5,1.5,0,0,1-1.467-1.469,1.5,1.5,0,0,1,1.467-1.469,1.4,1.4,0,0,1,1.355,1.469A1.4,1.4,0,0,1-70.987,170.987Z" transform="translate(119.888 -146.931)"/>
      <path id="패스_3545" data-name="패스 3545" d="M-81.069,165.34a4.29,4.29,0,0,0-4.291,4.291,4.29,4.29,0,0,0,4.291,4.291,4.29,4.29,0,0,0,4.291-4.291A4.29,4.29,0,0,0-81.069,165.34Zm0,5.647a1.5,1.5,0,0,1-1.467-1.469,1.5,1.5,0,0,1,1.467-1.469,1.5,1.5,0,0,1,1.469,1.469A1.5,1.5,0,0,1-81.069,170.987Z" transform="translate(118.676 -146.931)"/>
      <path id="패스_3546" data-name="패스 3546" d="M-91.151,165.34a4.29,4.29,0,0,0-4.291,4.291,4.29,4.29,0,0,0,4.291,4.291,4.29,4.29,0,0,0,4.291-4.291A4.29,4.29,0,0,0-91.151,165.34Zm0,5.647a1.494,1.494,0,0,1-1.467-1.469,1.494,1.494,0,0,1,1.467-1.469,1.5,1.5,0,0,1,1.469,1.469A1.5,1.5,0,0,1-91.151,170.987Z" transform="translate(117.465 -146.931)"/>
    </g>
  </g>
</svg>
