<svg xmlns="http://www.w3.org/2000/svg" width="68.638" height="65" viewBox="0 0 68.638 65">
  <g id="그룹_473" data-name="그룹 473" transform="translate(0)">
    <path id="패스_3522" data-name="패스 3522" d="M-269.263,325.734l-1.219,7.106a1.5,1.5,0,0,0,2.176,1.581l6.382-3.355,6.382,3.355a1.5,1.5,0,0,0,2.177-1.581l-1.219-7.106,5.162-5.032a1.5,1.5,0,0,0-.831-2.559l-7.135-1.037-3.191-6.465a1.563,1.563,0,0,0-2.691,0l-3.19,6.465-7.135,1.037a1.5,1.5,0,0,0-.831,2.559Zm4.016-5.772a1.5,1.5,0,0,0,1.129-.821l2.194-4.446,2.194,4.446a1.5,1.5,0,0,0,1.129.821l4.908.713-3.551,3.462a1.5,1.5,0,0,0-.432,1.327l.839,4.887-4.389-2.307a1.5,1.5,0,0,0-1.4,0l-4.39,2.307.838-4.887a1.5,1.5,0,0,0-.431-1.327l-3.551-3.462Z" transform="translate(296 -281.594)"/>
    <path id="패스_3523" data-name="패스 3523" d="M-247.727,266.74a6.112,6.112,0,0,0-6.105-6.1h-6.006v-4.809a1.5,1.5,0,0,0-1.5-1.5h-7.752a1.5,1.5,0,0,0-1.5,1.5v4.809H-293.5v-4.809a1.5,1.5,0,0,0-1.5-1.5h-7.752a1.5,1.5,0,0,0-1.5,1.5v4.809h-6.006a6.112,6.112,0,0,0-6.105,6.1l.005,46.481a6.112,6.112,0,0,0,6.105,6.1h46.534a1.505,1.505,0,0,0,1.06-.439l14.488-14.488a1.553,1.553,0,0,0,.421-.966C-247.749,303.4-247.727,266.74-247.727,266.74Zm-19.863-9.414h4.752v9.741h-4.752Zm-33.664,0h4.753v9.741h-4.753Zm-9.006,6.309h6.006v4.932a1.5,1.5,0,0,0,1.5,1.5H-295a1.5,1.5,0,0,0,1.5-1.5v-4.932h22.912v4.932a1.5,1.5,0,0,0,1.5,1.5h7.752a1.5,1.5,0,0,0,1.5-1.5v-4.932h6.006a3.109,3.109,0,0,1,3.106,3.105v7.415h-62.639V266.74A3.109,3.109,0,0,1-310.26,263.635Zm-3.1,49.586V277.159h62.627v24.68h-8.382a6.112,6.112,0,0,0-6.105,6.105v8.382h-45.034A3.109,3.109,0,0,1-313.36,313.221Zm51.139.984v-6.262a3.109,3.109,0,0,1,3.106-3.105h6.261Z" transform="translate(316.365 -254.326)"/>
  </g>
</svg>
