<svg xmlns="http://www.w3.org/2000/svg" width="56.486" height="65" viewBox="0 0 56.486 65">
  <g id="그룹_497" data-name="그룹 497" transform="translate(-5166.261 -2065.23)">
    <g id="그룹_496" data-name="그룹 496" transform="translate(5166.261 2065.23)">
      <path id="패스_3547" data-name="패스 3547" d="M5215.314,2072.159h-1.486v-1.765c0-3.239-3.4-5.682-7.068-5.069-.056.009,1.18-.243-33.26,6.839-4.009.09-7.239,2.947-7.239,6.448v45.166c0,3.558,3.334,6.452,7.433,6.452h41.621c4.1,0,7.433-2.894,7.433-6.452v-45.166C5222.747,2075.054,5219.413,2072.159,5215.314,2072.159Zm-7.965-4.3a2.878,2.878,0,0,1,3.507,2.539v1.765h-24.438Zm12.425,55.923c0,2.135-2,3.872-4.459,3.872h-41.621c-2.458,0-4.459-1.736-4.459-3.872v-45.166c0-2.135,2-3.871,4.459-3.871h41.621c2.459,0,4.459,1.737,4.459,3.871Z" transform="translate(-5166.261 -2065.23)"/>
      <path id="패스_3548" data-name="패스 3548" d="M5249.119,2205.49a16.362,16.362,0,1,0,16.344,16.362A16.371,16.371,0,0,0,5249.119,2205.49Zm13.289,14.874h-5.89a27.544,27.544,0,0,0-2.424-10.938A13.419,13.419,0,0,1,5262.407,2220.364Zm-13.289,14.875c-.884,0-1.993-1.343-2.822-3.422a26.572,26.572,0,0,1-1.6-8.478h8.854a26.6,26.6,0,0,1-1.6,8.478C5251.111,2233.9,5250,2235.239,5249.119,2235.239Zm-4.427-14.875a26.575,26.575,0,0,1,1.6-8.478c.83-2.078,1.938-3.422,2.822-3.422s1.993,1.344,2.824,3.422a26.6,26.6,0,0,1,1.6,8.478Zm-.537-10.942a27.37,27.37,0,0,0-2.437,10.942h-5.887A13.417,13.417,0,0,1,5244.155,2209.421Zm-8.324,13.917h5.891a27.561,27.561,0,0,0,2.423,10.939A13.419,13.419,0,0,1,5235.831,2223.339Zm18.251,10.943a27.392,27.392,0,0,0,2.438-10.943h5.887A13.42,13.42,0,0,1,5254.083,2234.282Z" transform="translate(-5220.875 -2186.297)"/>
      <path id="패스_3549" data-name="패스 3549" d="M5282.7,2409.192h-19.337a1.488,1.488,0,0,0,0,2.975H5282.7a1.488,1.488,0,0,0,0-2.975Z" transform="translate(-5244.791 -2357.579)"/>
    </g>
  </g>
</svg>
