<svg xmlns="http://www.w3.org/2000/svg" width="36.27" height="65" viewBox="0 0 36.27 65">
  <path id="패스_3542" data-name="패스 3542" d="M-441.1,112.591a1.606,1.606,0,0,0-1.606-1.606,1.606,1.606,0,0,0-1.606,1.606c0,.261,0,.528,0,.8.017,2.408.034,5.138-1.354,6.536-.834.839-2.248,1.265-4.2,1.265a3.977,3.977,0,0,1-3.063-1.145c-1.135-1.2-1.693-3.383-1.666-6.5h.157a6.184,6.184,0,0,0,6.177-6.177v-1.139a13.912,13.912,0,0,0,9.943-13.318V81.651a5.371,5.371,0,0,0-5.365-5.365h-.456V63.9a4.5,4.5,0,0,0-4.5-4.5,4.5,4.5,0,0,0-4.5,4.5V76.286H-460.2V63.9a4.5,4.5,0,0,0-4.5-4.5,4.5,4.5,0,0,0-4.5,4.5V76.286h-.03a5.371,5.371,0,0,0-5.365,5.365V92.91a13.913,13.913,0,0,0,9.945,13.318v1.139a6.184,6.184,0,0,0,6.177,6.177h.658c-.029,4.013.807,6.87,2.543,8.707a7.109,7.109,0,0,0,5.4,2.15c2.841,0,5.021-.744,6.481-2.214,2.33-2.347,2.306-5.937,2.287-8.822C-441.1,113.1-441.1,112.845-441.1,112.591ZM-449.92,63.9a1.286,1.286,0,0,1,1.285-1.285A1.286,1.286,0,0,1-447.35,63.9V76.151h-2.569Zm-16.06,0a1.287,1.287,0,0,1,1.285-1.285A1.287,1.287,0,0,1-463.41,63.9V76.151h-2.57Zm-5.4,29.011V81.651a2.156,2.156,0,0,1,2.153-2.153h25.541a2.156,2.156,0,0,1,2.153,2.153V92.91a10.689,10.689,0,0,1-10.677,10.677H-460.7A10.689,10.689,0,0,1-471.375,92.91Zm9.945,14.457V106.8h9.957v.568a2.969,2.969,0,0,1-2.965,2.965h-4.026A2.969,2.969,0,0,1-461.43,107.367Z" transform="translate(474.587 -59.402)" fill="#171c1f"/>
</svg>
