<svg xmlns="http://www.w3.org/2000/svg" xmlns:xlink="http://www.w3.org/1999/xlink" width="62" height="62" viewBox="0 0 62 62">
  <defs>
    <clipPath id="clip-path">
      <circle id="타원_57" data-name="타원 57" cx="31" cy="31" r="31" transform="translate(1390 4262)" fill="#fff" stroke="#707070" stroke-width="1"/>
    </clipPath>
  </defs>
  <g id="마스크_그룹_23" data-name="마스크 그룹 23" transform="translate(-1390 -4262)" clip-path="url(#clip-path)">
    <g id="타원_8" data-name="타원 8" transform="translate(1390 4262)" fill="#fff" stroke="#707070" stroke-width="1">
      <circle cx="31" cy="31" r="31" stroke="none"/>
      <circle cx="31" cy="31" r="30.5" fill="none"/>
    </g>
    <g id="그룹_144" data-name="그룹 144" transform="translate(1055.035 4203.806)">
      <path id="패스_112" data-name="패스 112" d="M401.025,91.265a33.043,33.043,0,1,1-33.043-33.041A33.044,33.044,0,0,1,401.025,91.265Z" transform="translate(-2 -2)" fill="#4aa835"/>
      <g id="그룹_143" data-name="그룹 143" transform="translate(347.047 75.387)">
        <path id="패스_113" data-name="패스 113" d="M367.878,87.626a1.55,1.55,0,1,0,1.55,1.55A1.551,1.551,0,0,0,367.878,87.626Z" transform="translate(-346.987 -75.458)" fill="#fff"/>
        <path id="패스_114" data-name="패스 114" d="M375.84,87.734a1.436,1.436,0,1,0,1.435,1.435A1.437,1.437,0,0,0,375.84,87.734Z" transform="translate(-346.458 -75.451)" fill="#fff"/>
        <path id="패스_115" data-name="패스 115" d="M378.92,76.207H354.653a6.475,6.475,0,0,0-6.475,6.477v12.57a6.475,6.475,0,0,0,6.475,6.476h9.123l3.011,5.939,3.411-5.939h8.722a6.477,6.477,0,0,0,6.477-6.476V82.684A6.476,6.476,0,0,0,378.92,76.207Zm-22.7,17.2a3.545,3.545,0,0,1-1.808-.5v.448H351.98V83.5h2.427V86.76a3.568,3.568,0,1,1,1.808,6.644Zm7.567-6.568V93.4h-2.33V86.835c0-1.427-.9-1.427-.9-1.427V83.5a2.915,2.915,0,0,1,3.108,2.379,4.229,4.229,0,0,1,.127.939Zm5.285,6.86a3.77,3.77,0,1,1,3.77-3.77A3.771,3.771,0,0,1,369.068,93.7Zm8.14,3.1v-1.9s2.114.247,2.114-.951V92.933a3.488,3.488,0,1,1,0-6.014v-.3h2.256v7.33S382.071,96.8,377.208,96.8Z" transform="translate(-348.178 -76.207)" fill="#fff"/>
        <path id="패스_116" data-name="패스 116" d="M355.567,87.633a1.451,1.451,0,1,0,1.45,1.451A1.453,1.453,0,0,0,355.567,87.633Z" transform="translate(-347.789 -75.457)" fill="#fff"/>
      </g>
    </g>
  </g>
</svg>
