<svg id="그룹_70" data-name="그룹 70" xmlns="http://www.w3.org/2000/svg" width="190" height="190" viewBox="0 0 190 190">
  <g id="그룹_34" data-name="그룹 34" transform="translate(0 0)">
    <path id="패스_52" data-name="패스 52" d="M354.726,127.43a94.478,94.478,0,0,1-12.777,47.6c-.306.53-.632,1.06-.958,1.589-.754,1.263-1.549,2.527-2.384,3.749-.346.509-.693,1.019-1.08,1.528A94.948,94.948,0,0,1,285.442,218.9c-.448.122-.917.245-1.365.367a95.048,95.048,0,0,1-103.151-38.819c-1.61-2.343-3.1-4.789-4.463-7.275A95,95,0,1,1,354.726,127.43Z" transform="translate(-164.726 -32.43)" fill="#edddd6"/>
  </g>
  <g id="그룹_36" data-name="그룹 36" transform="translate(43.613 16.997)">
    <g id="그룹_35" data-name="그룹 35">
      <path id="패스_53" data-name="패스 53" d="M196.8,105.819S186.617,51.827,226.129,41.94s41.889,46.195,41.889,46.195,43,8.181,43.279,49.993c.351,52.257-50.156,43.473-50.156,43.473L213.3,162.117S165.389,136.023,196.8,105.819Z" transform="translate(-186.124 -40.772)"/>
    </g>
  </g>
  <g id="그룹_38" data-name="그룹 38" transform="translate(16.199 104.576)">
    <g id="그룹_37" data-name="그룹 37">
      <path id="패스_54" data-name="패스 54" d="M329.279,128.642a94.949,94.949,0,0,1-52.086,37c-.448.122-.917.245-1.365.367A95.054,95.054,0,0,1,172.676,127.2c12.757-17.442,28.753-30.646,39.635-35.332,16.1-6.928,41.632-11.574,65.209-4.829.061.02.143.02.224.041a71.411,71.411,0,0,1,20.4,9.434C312.019,105.882,322.127,116.763,329.279,128.642Z" transform="translate(-172.676 -83.747)" fill="#f7734f"/>
    </g>
  </g>
  <g id="그룹_43" data-name="그룹 43" transform="translate(76.341 86.159)">
    <g id="그룹_42" data-name="그룹 42">
      <g id="그룹_41" data-name="그룹 41">
        <g id="그룹_40" data-name="그룹 40">
          <g id="그룹_39" data-name="그룹 39">
            <path id="패스_55" data-name="패스 55" d="M202.189,80.013l0,.577.487,10.881.344,8.532s-.727,1.985,9.2,1.341c13.31-.913,17.6-6.632,17.6-6.632l.566-20-4.035.768Z" transform="translate(-202.189 -74.711)" fill="#fca397"/>
          </g>
        </g>
      </g>
    </g>
  </g>
  <g id="그룹_48" data-name="그룹 48" transform="translate(76.343 86.97)">
    <g id="그룹_47" data-name="그룹 47">
      <g id="그룹_46" data-name="그룹 46">
        <g id="그룹_45" data-name="그룹 45">
          <g id="그룹_44" data-name="그룹 44">
            <path id="패스_56" data-name="패스 56" d="M202.19,80.177l.487,10.881c6.467-.784,18.239-3.586,22.995-13.76a8.146,8.146,0,0,0,.687-2.188l-24.127,4.9Z" transform="translate(-202.19 -75.109)"/>
          </g>
        </g>
      </g>
    </g>
  </g>
  <g id="그룹_53" data-name="그룹 53" transform="translate(63.237 31.72)">
    <g id="그룹_52" data-name="그룹 52">
      <g id="그룹_51" data-name="그룹 51">
        <g id="그룹_50" data-name="그룹 50">
          <g id="그룹_49" data-name="그룹 49">
            <path id="패스_57" data-name="패스 57" d="M204.646,56.232s-12.379,28.331-7.92,44.247,18.962,13.414,27.638,10.335,12.7-8.4,12.7-8.4a12.231,12.231,0,0,0,13.526-4.788c5.422-7.537,2.085-16.193-2.545-18.176s-10.131,1.357-10.131,1.357l4.314-8.232S224.085,30.734,204.646,56.232Z" transform="translate(-195.758 -47.996)" fill="#fca397"/>
          </g>
        </g>
      </g>
    </g>
  </g>
  <g id="그룹_55" data-name="그룹 55" transform="translate(75.957 22.897)">
    <g id="그룹_54" data-name="그룹 54">
      <path id="패스_58" data-name="패스 58" d="M202.01,56.528a23.594,23.594,0,0,0,14.269,21.925c15.162,6.848,25.293,5.491,25.293,5.491l-.984-19.659-18.98-20.619-16.971,5.408Z" transform="translate(-202 -43.667)"/>
    </g>
  </g>
  <g id="그룹_57" data-name="그룹 57" transform="translate(104.374 60.189)">
    <g id="그룹_56" data-name="그룹 56" transform="translate(0 0)">
      <path id="패스_59" data-name="패스 59" d="M215.946,61.967,216,70.551l7.636-7.531Z" transform="translate(-215.946 -61.967)"/>
    </g>
  </g>
  <g id="그룹_59" data-name="그룹 59" transform="translate(119.356 107.802)">
    <g id="그룹_58" data-name="그룹 58">
      <path id="패스_60" data-name="패스 60" d="M280.207,121.722c-.754,1.263-1.549,2.527-2.384,3.749-.346.509-.693,1.019-1.08,1.528a94.942,94.942,0,0,1-52.081,37c-.448.122-.917.245-1.365.367l1.3-79.039s.143.02.387.061c.061.02.143.02.224.041,4.686.795,35.393,6.867,51.878,31.033A48.332,48.332,0,0,1,280.207,121.722Z" transform="translate(-223.296 -85.33)" fill="#f7734f"/>
    </g>
  </g>
  <g id="그룹_60" data-name="그룹 60" transform="translate(71.9 105.971)">
    <path id="패스_61" data-name="패스 61" d="M211.625,92.428a48.9,48.9,0,0,1-10.842-1.163,1.019,1.019,0,0,1,.489-1.979c.181.047,18.139,4.33,30.468-4.658a1.02,1.02,0,1,1,1.2,1.648C226.176,91.207,218.029,92.428,211.625,92.428Z" transform="translate(-200.009 -84.434)" fill="#7772d3"/>
  </g>
  <g id="그룹_61" data-name="그룹 61" transform="translate(67.585 46.5)">
    <path id="패스_62" data-name="패스 62" d="M198.911,59.053a1.019,1.019,0,0,1-.3-1.991l5.646-1.765a1.019,1.019,0,0,1,.609,1.944l-5.646,1.765A1.06,1.06,0,0,1,198.911,59.053Z" transform="translate(-197.892 -55.249)"/>
  </g>
  <g id="그룹_62" data-name="그룹 62" transform="translate(104.96 67.686)">
    <path id="패스_63" data-name="패스 63" d="M217.253,75.72a1.019,1.019,0,0,1-.691-1.769l8.735-8.038a1.02,1.02,0,0,1,1.379,1.5l-8.735,8.036A1.017,1.017,0,0,1,217.253,75.72Z" transform="translate(-216.234 -65.646)"/>
  </g>
  <g id="그룹_63" data-name="그룹 63" transform="translate(108.596 72.376)">
    <path id="패스_64" data-name="패스 64" d="M224.249,72.274a1.047,1.047,0,0,1-.41-.086L218.627,69.9a1.019,1.019,0,0,1,.819-1.866l5.212,2.288a1.019,1.019,0,0,1-.41,1.952Z" transform="translate(-218.018 -67.948)"/>
  </g>
  <g id="그룹_64" data-name="그룹 64" transform="translate(68.095 54.305)">
    <path id="패스_65" data-name="패스 65" d="M200.4,69.368a1.015,1.015,0,0,1-1-1.227l1.041-5.015-2.048-2.36a1.019,1.019,0,0,1,1.538-1.337l2.378,2.743a1.009,1.009,0,0,1,.228.874l-1.143,5.508A1.018,1.018,0,0,1,200.4,69.368Z" transform="translate(-198.143 -59.08)"/>
  </g>
  <g id="그룹_65" data-name="그룹 65" transform="translate(85.177 55.175)">
    <path id="패스_66" data-name="패스 66" d="M208.78,69.8a1.061,1.061,0,0,1-.208-.022,1.018,1.018,0,0,1-.791-1.2l1.041-5.015-2.048-2.362a1.018,1.018,0,0,1,1.538-1.335l2.378,2.741a1.022,1.022,0,0,1,.23.876l-1.143,5.508A1.022,1.022,0,0,1,208.78,69.8Z" transform="translate(-206.525 -59.506)"/>
  </g>
  <g id="그룹_66" data-name="그룹 66" transform="translate(72.259 62.111)">
    <path id="패스_67" data-name="패스 67" d="M201.655,77.834a1.016,1.016,0,0,1-.994-.809c-1.9-9.059,2.49-13.621,2.677-13.811a1.018,1.018,0,0,1,1.451,1.428c-.169.177-3.79,4.051-2.135,11.965a1.02,1.02,0,0,1-.789,1.206A1.045,1.045,0,0,1,201.655,77.834Z" transform="translate(-200.186 -62.91)"/>
  </g>
  <g id="그룹_67" data-name="그룹 67" transform="translate(77.471 78.156)">
    <path id="패스_68" data-name="패스 68" d="M208.207,78.38c-.6,0-2.05-.281-5.072-3.623a1.5,1.5,0,0,1-.338-1.4,1.573,1.573,0,0,1,1.08-1.072c7.272-2.176,8.258-1.432,8.682-1.115a1.926,1.926,0,0,1,.505,2.284c-.552,1.856-2.867,4.8-4.676,4.921C208.34,78.376,208.279,78.38,208.207,78.38Zm-2.983-4.371a8.533,8.533,0,0,0,3.03,2.329,4.119,4.119,0,0,0,1.7-1.459,6.309,6.309,0,0,0,1.188-2.1A30.039,30.039,0,0,0,205.224,74.01Z" transform="translate(-202.744 -70.784)"/>
  </g>
  <g id="그룹_69" data-name="그룹 69" transform="translate(38.712 142.026)">
    <g id="그룹_68" data-name="그룹 68">
      <path id="패스_69" data-name="패스 69" d="M193.99,103.846c-.1.12-9.838,10.555-7.989,29.313-.585-.375-1.149-.772-1.714-1.19-.161-.1-.3-.228-.463-.353-1.2-18.628,8.576-29.04,8.7-29.181a1.044,1.044,0,0,1,1.447-.037A1.027,1.027,0,0,1,193.99,103.846Z" transform="translate(-183.723 -102.126)" fill="#7772d3"/>
    </g>
  </g>
</svg>
