<svg id="그룹_130" data-name="그룹 130" xmlns="http://www.w3.org/2000/svg" width="190" height="190" viewBox="0 0 190 190">
  <g id="그룹_104" data-name="그룹 104" transform="translate(0 0)">
    <path id="패스_90" data-name="패스 90" d="M727.256,248.47a95,95,0,1,1-94.99-95A94.585,94.585,0,0,1,727.256,248.47Z" transform="translate(-537.256 -153.47)" fill="#edddd6"/>
  </g>
  <g id="그룹_105" data-name="그룹 105" transform="translate(87.751 32.101)">
    <path id="패스_91" data-name="패스 91" d="M580.323,177.225s12.783-17.885,45.488-.183,18.833,99.007,18.833,99.007l-61.556-7.922Z" transform="translate(-580.323 -169.221)"/>
  </g>
  <g id="그룹_109" data-name="그룹 109" transform="translate(69.996 87.597)">
    <g id="그룹_108" data-name="그룹 108">
      <g id="그룹_107" data-name="그룹 107">
        <g id="그룹_106" data-name="그룹 106">
          <path id="패스_92" data-name="패스 92" d="M600.077,196.456l1.453,23.405s-3.641,6.97-16.736,8.875c-9.756,1.418-13.185-3.635-13.185-3.635l1.1-20.624,23.434-6.864Z" transform="translate(-571.609 -196.456)" fill="#fca397"/>
        </g>
      </g>
    </g>
  </g>
  <g id="그룹_113" data-name="그룹 113" transform="translate(70.468 86.17)">
    <g id="그룹_112" data-name="그룹 112">
      <g id="그룹_111" data-name="그룹 111">
        <g id="그룹_110" data-name="그룹 110">
          <path id="패스_93" data-name="패스 93" d="M599.714,195.756a7.951,7.951,0,0,1-.513,2.3c-4.311,11.993-21.728,17.924-27.36,18.79l.632-11.64Z" transform="translate(-571.841 -195.756)"/>
        </g>
      </g>
    </g>
  </g>
  <g id="그룹_117" data-name="그룹 117" transform="translate(56.709 33.073)">
    <g id="그룹_116" data-name="그룹 116">
      <g id="그룹_115" data-name="그룹 115">
        <g id="그룹_114" data-name="그룹 114">
          <path id="패스_94" data-name="패스 94" d="M571.149,179.191s-9.988,30.055-4.321,46.079,19.8,12.358,28.13,8.541,11.889-9.591,11.889-9.591a11.828,11.828,0,0,0,12.987-5.941c4.76-8.156.776-16.8-3.953-18.491s-9.9,2.16-9.9,2.16l3.61-8.788S588.342,151.518,571.149,179.191Z" transform="translate(-565.088 -169.699)" fill="#fca397"/>
        </g>
      </g>
    </g>
  </g>
  <g id="그룹_118" data-name="그룹 118" transform="translate(65.092 65.311)">
    <path id="패스_95" data-name="패스 95" d="M570.948,199.772a1.017,1.017,0,0,1-.95-.648c-2.38-6.092,1.32-12.8,1.479-13.085a1.02,1.02,0,0,1,1.779,1c-.035.061-3.386,6.159-1.359,11.345a1.02,1.02,0,0,1-.949,1.39Z" transform="translate(-569.202 -185.52)"/>
  </g>
  <g id="그룹_119" data-name="그룹 119" transform="translate(98.83 67.92)">
    <path id="패스_96" data-name="패스 96" d="M586.78,197.849a1.007,1.007,0,0,1-.619-.21,1.017,1.017,0,0,1-.189-1.428l6.9-9.01a1.018,1.018,0,1,1,1.616,1.239l-6.9,9.01A1.006,1.006,0,0,1,586.78,197.849Z" transform="translate(-585.761 -186.801)"/>
  </g>
  <g id="그룹_120" data-name="그룹 120" transform="translate(101.363 73.623)">
    <path id="패스_97" data-name="패스 97" d="M593.349,192.029c-.075,0-5.4-.393-5.4-.393a1.018,1.018,0,1,1,.147-2.031l5.324.391a1.018,1.018,0,0,1-.071,2.033Z" transform="translate(-587.004 -189.6)"/>
  </g>
  <g id="그룹_121" data-name="그룹 121" transform="translate(58.374 52.828)">
    <path id="패스_98" data-name="패스 98" d="M566.923,182.762a1.018,1.018,0,0,1-.265-2l4.89-1.328a1.019,1.019,0,0,1,.534,1.966l-4.892,1.326A.937.937,0,0,1,566.923,182.762Z" transform="translate(-565.905 -179.394)"/>
  </g>
  <g id="그룹_122" data-name="그룹 122" transform="translate(72.39 53.971)">
    <path id="패스_99" data-name="패스 99" d="M580.73,183.791a1,1,0,0,1-.255-.033l-6.928-1.8a1.018,1.018,0,1,1,.509-1.972l6.928,1.8a1.019,1.019,0,0,1-.255,2Z" transform="translate(-572.784 -179.956)"/>
  </g>
  <g id="그룹_123" data-name="그룹 123" transform="translate(58.783 58.876)">
    <path id="패스_100" data-name="패스 100" d="M567.75,191.626a.985.985,0,0,1-.2-.02,1.018,1.018,0,0,1-.8-1.2l.992-4.872-1.363-1.455a1.02,1.02,0,0,1,1.49-1.394l1.722,1.84a1.023,1.023,0,0,1,.255.9l-1.1,5.387A1.016,1.016,0,0,1,567.75,191.626Z" transform="translate(-566.106 -182.363)"/>
  </g>
  <g id="그룹_124" data-name="그룹 124" transform="translate(73.574 58.493)">
    <path id="패스_101" data-name="패스 101" d="M575.653,192.013a.988.988,0,0,1-.2-.02,1.021,1.021,0,0,1-.8-1.2l.992-4.855-1.989-2.029a1.019,1.019,0,0,1,1.457-1.426l2.365,2.416a1.021,1.021,0,0,1,.271.917l-1.1,5.387A1.021,1.021,0,0,1,575.653,192.013Z" transform="translate(-573.365 -182.175)"/>
  </g>
  <g id="그룹_125" data-name="그룹 125" transform="translate(68.788 101.845)">
    <path id="패스_102" data-name="패스 102" d="M571.94,222.05s-2.516-12.433.756-13.187,7.156,1.385,14.8-.513,11.638-4.758,14.077-4.9,1.685,15.518,1.685,15.518l-18.886,7.981Z" transform="translate(-571.016 -203.449)" fill="#507849"/>
  </g>
  <g id="그룹_126" data-name="그룹 126" transform="translate(57.817 26.769)">
    <path id="패스_103" data-name="패스 103" d="M616.654,203.7s-3.68-1.314-6.428-.776a11.591,11.591,0,0,0-4.813,2.241l-3.378,4.7,1.9-9.619a66.573,66.573,0,0,0-6.131-2.824l1.261-8.3-3.374,7.47a50.85,50.85,0,0,0-11.909-3.014,60.124,60.124,0,0,0-6.027-.381l1.11-9.036-3.388,9.038a30.765,30.765,0,0,0-6.789.78l-3.044,9.309s-.748-25.1,10.135-31.991,30.691-6.926,39.84,4.941S616.654,203.7,616.654,203.7Z" transform="translate(-565.632 -166.608)"/>
  </g>
  <g id="그룹_127" data-name="그룹 127" transform="translate(73.574 78.855)">
    <path id="패스_104" data-name="패스 104" d="M574.382,199.1a1.019,1.019,0,0,1-.114-2.031c.143-.018,2.914-.438,4.955-4.352a1.019,1.019,0,0,1,1.807.943c-2.584,4.953-6.377,5.418-6.536,5.434A1.01,1.01,0,0,1,574.382,199.1Z" transform="translate(-573.365 -192.167)"/>
  </g>
  <g id="그룹_128" data-name="그룹 128" transform="translate(18.46 114.091)">
    <path id="패스_105" data-name="패스 105" d="M692.081,255.412a94.983,94.983,0,0,1-145.766-8.782c8.558-10.6,27.059-29.89,51.529-35C629.835,204.922,675.231,212.2,692.081,255.412Z" transform="translate(-546.316 -209.454)" fill="#507849"/>
  </g>
  <g id="그룹_129" data-name="그룹 129" transform="translate(87.791 109.981)">
    <path id="패스_106" data-name="패스 106" d="M581.362,212.076a1.019,1.019,0,1,1,0-2.038,28.558,28.558,0,0,0,10.674-2.5,1.02,1.02,0,0,1,.864,1.848A30.112,30.112,0,0,1,581.362,212.076Z" transform="translate(-580.343 -207.442)" fill="#fff"/>
  </g>
</svg>
