<svg id="그룹_33" data-name="그룹 33" xmlns="http://www.w3.org/2000/svg" width="190" height="190" viewBox="0 0 190 190">
  <g id="그룹_5" data-name="그룹 5" transform="translate(0 0)">
    <path id="패스_33" data-name="패스 33" d="M355.446,368.84a94.971,94.971,0,0,1-94.99,94.99,95.964,95.964,0,0,1-16.708-1.467,89.344,89.344,0,0,1-12.572-3.158A95,95,0,1,1,355.446,368.84Z" transform="translate(-165.446 -273.83)" fill="#edddd6"/>
  </g>
  <g id="그룹_6" data-name="그룹 6" transform="translate(14.651 38.399)">
    <path id="패스_34" data-name="패스 34" d="M238.716,298.371a39.61,39.61,0,0,0-40.031-.384c-21.693,12.047-14.89,34.4-14.89,34.4s-17.009,21.325-9.062,42.509,43.286,27.211,58.981,3.318-9.225-45.194-9.225-45.194S244.7,332.905,238.716,298.371Z" transform="translate(-172.618 -292.731)" fill="#e56445"/>
  </g>
  <g id="그룹_7" data-name="그룹 7" transform="translate(142.055 130.839)">
    <path id="패스_35" data-name="패스 35" d="M261.66,362.328a95.752,95.752,0,0,1-26.434,22.389c.184-27.864,11.113-46.6,11.113-46.6A266.311,266.311,0,0,0,261.66,362.328Z" transform="translate(-235.226 -338.12)" fill="#fca397"/>
  </g>
  <g id="그룹_8" data-name="그룹 8" transform="translate(71.096 23.772)">
    <path id="패스_36" data-name="패스 36" d="M260.194,324.765s7.834-24.23,6.764-30.359-26.773-14.038-47.2-4.517-21.8,36.373-17.193,47.48c11.859,28.6,36.505,15.438,36.505,15.438S278.344,340.84,260.194,324.765Z" transform="translate(-200.388 -285.467)" fill="#e56445"/>
  </g>
  <g id="그룹_9" data-name="그룹 9" transform="translate(65.56 107.462)">
    <path id="패스_37" data-name="패스 37" d="M292.9,382.78a95.061,95.061,0,0,1-65.841,26.434,96.21,96.21,0,0,1-16.751-1.471,89.569,89.569,0,0,1-12.6-3.166c1.042-20.2,2.411-41.04,4.106-55.054,1.083-8.968,2.308-15.137,3.677-16.588,1.226-1.307,3.677-2.533,7.068-3.555a77.6,77.6,0,0,1,20.755-2.7,89.667,89.667,0,0,1,26.128,3.411c7.742,2.329,14.954,5.924,20.469,11.236a26.205,26.205,0,0,1,5.557,8.723C289.041,358.286,291.37,369.89,292.9,382.78Z" transform="translate(-197.706 -326.677)" fill="#507849"/>
  </g>
  <g id="그룹_13" data-name="그룹 13" transform="translate(99.108 90.149)">
    <g id="그룹_12" data-name="그룹 12">
      <g id="그룹_11" data-name="그룹 11">
        <g id="그룹_10" data-name="그룹 10">
          <path id="패스_38" data-name="패스 38" d="M242.316,322.432l.02.6-.014,11.336.025,8.886s.807,2.033-9.072,1.777c-13.242-.4-17.744-6.163-17.744-6.163l-1.422-20.774,4.037.631Z" transform="translate(-214.109 -318.093)" fill="#fca397"/>
        </g>
      </g>
    </g>
  </g>
  <g id="그룹_17" data-name="그룹 17" transform="translate(103.948 91.81)">
    <g id="그룹_16" data-name="그룹 16">
      <g id="그룹_15" data-name="그룹 15">
        <g id="그룹_14" data-name="그룹 14">
          <path id="패스_39" data-name="패스 39" d="M239.884,322.8l-.031,10.465c-6.241-.494-17.654-2.713-22.624-12.29a7.917,7.917,0,0,1-.748-2.076l23.358,3.745Z" transform="translate(-216.481 -318.899)"/>
        </g>
      </g>
    </g>
  </g>
  <g id="그룹_21" data-name="그룹 21" transform="translate(83.834 38.271)">
    <g id="그룹_20" data-name="그룹 20">
      <g id="그룹_19" data-name="그룹 19">
        <g id="그룹_18" data-name="그룹 18">
          <path id="패스_40" data-name="패스 40" d="M252.121,300.026s13.017,26.7,9.371,42.16-17.666,13.632-26.118,11.025-12.533-7.554-12.533-7.554a11.75,11.75,0,0,1-13.174-4.057c-5.506-7.017-2.648-15.46,1.716-17.55s9.779.9,9.779.9l-4.47-7.73S232.44,276.325,252.121,300.026Z" transform="translate(-206.635 -292.637)" fill="#fca397"/>
        </g>
      </g>
    </g>
  </g>
  <g id="그룹_22" data-name="그룹 22" transform="translate(125.678 67.195)">
    <path id="패스_41" data-name="패스 41" d="M230.9,320.006a1.024,1.024,0,0,1-.987-1.289c1.35-4.974-2.537-10.21-2.576-10.263a1.021,1.021,0,1,1,1.628-1.232c.186.245,4.535,6.077,2.919,12.028A1.025,1.025,0,0,1,230.9,320.006Z" transform="translate(-227.132 -306.815)"/>
  </g>
  <g id="그룹_23" data-name="그룹 23" transform="translate(88.999 73.868)">
    <path id="패스_42" data-name="패스 42" d="M217.816,319.7a1.013,1.013,0,0,1-.717-.3l-7.665-7.573a1.022,1.022,0,0,1,1.438-1.453l7.663,7.573a1.022,1.022,0,0,1-.719,1.749Z" transform="translate(-209.132 -310.089)"/>
  </g>
  <g id="그룹_24" data-name="그룹 24" transform="translate(88.771 78.658)">
    <path id="패스_43" data-name="패스 43" d="M210.039,315.431a1.021,1.021,0,0,1-.188-2.024l5.085-.954a1.022,1.022,0,0,1,.378,2.008l-5.087.954A1.194,1.194,0,0,1,210.039,315.431Z" transform="translate(-209.018 -312.436)"/>
  </g>
  <g id="그룹_25" data-name="그룹 25" transform="translate(113.824 81.54)">
    <path id="패스_44" data-name="패스 44" d="M228.5,321.333a5.174,5.174,0,0,1-2.159-.476,10.275,10.275,0,0,1-4.974-5.661,1.022,1.022,0,0,1,1.258-1.3l10.76,3.162a1.021,1.021,0,0,1,.466,1.667C233.736,318.856,231.436,321.333,228.5,321.333Zm-4.143-4.8A7.15,7.15,0,0,0,227.2,319a3.926,3.926,0,0,0,3.765-.527Z" transform="translate(-221.32 -313.853)"/>
  </g>
  <g id="그룹_26" data-name="그룹 26" transform="translate(110.718 56.681)">
    <path id="패스_45" data-name="패스 45" d="M220.812,306.122a1.031,1.031,0,0,1-.435-.1,1.019,1.019,0,0,1-.488-1.358c1.767-3.755,6.457-2.954,6.653-2.923a1.022,1.022,0,0,1-.357,2.012c-.135-.027-3.352-.549-4.449,1.781A1.021,1.021,0,0,1,220.812,306.122Z" transform="translate(-219.791 -301.65)"/>
  </g>
  <g id="그룹_27" data-name="그룹 27" transform="translate(125.261 53.843)">
    <path id="패스_46" data-name="패스 46" d="M227.951,303.93a1.036,1.036,0,0,1-.547-.159,1.021,1.021,0,0,1-.315-1.41,4.251,4.251,0,0,1,2.931-2.051c2.4-.394,4.743,1.51,4.842,1.589a1.022,1.022,0,0,1-1.3,1.579,4.918,4.918,0,0,0-3.23-1.15,2.21,2.21,0,0,0-1.52,1.126A1.022,1.022,0,0,1,227.951,303.93Z" transform="translate(-226.93 -300.257)"/>
  </g>
  <g id="그룹_28" data-name="그룹 28" transform="translate(129.82 59.43)">
    <path id="패스_47" data-name="패스 47" d="M231.1,312.53a1.021,1.021,0,0,1-1-.838l-.921-5.029a1.027,1.027,0,0,1,.188-.8l1.845-2.456a1.023,1.023,0,0,1,1.634,1.23l-1.577,2.1.84,4.59a1.021,1.021,0,0,1-.821,1.189A1.116,1.116,0,0,1,231.1,312.53Z" transform="translate(-229.164 -303.001)"/>
  </g>
  <g id="그룹_29" data-name="그룹 29" transform="translate(112.859 60.718)">
    <path id="패스_48" data-name="패스 48" d="M222.683,313.6a1.022,1.022,0,0,1-1.007-.858l-.823-5.048a1.027,1.027,0,0,1,.268-.866l2.729-2.88a1.022,1.022,0,1,1,1.483,1.405l-2.382,2.513.742,4.549a1.018,1.018,0,0,1-.844,1.171A.91.91,0,0,1,222.683,313.6Z" transform="translate(-220.84 -303.634)"/>
  </g>
  <g id="그룹_30" data-name="그룹 30" transform="translate(89.102 33.494)">
    <path id="패스_49" data-name="패스 49" d="M218.474,327.408s11.658-6.5,15.656-15.2,4.006-12.995,4.006-12.995,1.935,5.548,6.31,6.715a33.037,33.037,0,0,0,7.07,1.224l3.042,7.877L252.1,296.083s-11.951-5.859-13.519-5.8-21.258,4.3-22.363,5.532-6.811,16.837-6.811,16.837l-.19,6.966Z" transform="translate(-209.212 -290.279)" fill="#e56445"/>
  </g>
  <g id="그룹_31" data-name="그룹 31" transform="translate(32.085 113.72)">
    <path id="패스_50" data-name="패스 50" d="M227.517,404.549a89.576,89.576,0,0,1-12.6-3.166,94.4,94.4,0,0,1-33.707-19.243,146.651,146.651,0,0,1,17.242-27.211A173.153,173.153,0,0,1,222.7,329.74l1.117,5.179a163.435,163.435,0,0,1,3.685,34.508C227.5,381.072,227.517,392.267,227.517,404.549Z" transform="translate(-181.206 -329.74)" fill="#fca397"/>
  </g>
  <g id="그룹_32" data-name="그룹 32" transform="translate(98.082 108.96)">
    <path id="패스_51" data-name="패스 51" d="M233.435,336.385a30.093,30.093,0,0,1-19.519-7.322,1.022,1.022,0,0,1,1.428-1.463c.484.47,12.053,11.444,29.247,4.474a1.022,1.022,0,0,1,.768,1.894A31.552,31.552,0,0,1,233.435,336.385Z" transform="translate(-213.609 -327.313)" fill="#fff"/>
  </g>
</svg>
